<?xml version="1.0" standalone="no"?>
<svg viewBox="0 0 200 200" xmlns="http://www.w3.org/2000/svg">
  <path fill="#0AC2FF" d="M33.8,-59.3C44.5,-52.3,54.5,-44.7,64.9,-34.8C75.3,-24.8,86.2,-12.4,86.2,0C86.2,12.4,75.2,24.8,67,38.6C58.8,52.4,53.3,67.6,42.6,75.3C31.9,83,15.9,83.1,2.3,79.1C-11.4,75.2,-22.9,67.3,-36,61C-49.2,54.8,-64.1,50.2,-74.5,40.3C-84.8,30.4,-90.7,15.2,-87,2.1C-83.4,-11,-70.4,-22.1,-62.4,-36C-54.3,-50,-51.3,-66.8,-41.8,-74.5C-32.2,-82.2,-16.1,-80.8,-2.3,-76.8C11.5,-72.9,23,-66.4,33.8,-59.3Z" transform="translate(100 100)" />
</svg>
