<?xml version="1.0" standalone="no"?>
<svg viewBox="0 0 200 200" xmlns="http://www.w3.org/2000/svg">
  <path fill="#00337A" d="M45.5,-77.6C59.1,-70.9,70.4,-59.1,75.4,-45.2C80.4,-31.4,79.1,-15.7,79.8,0.4C80.4,16.5,83,32.9,76,43.3C69,53.6,52.4,57.8,38.1,60C23.9,62.3,11.9,62.6,0.7,61.3C-10.5,60.1,-21,57.4,-30.7,52.4C-40.3,47.5,-49,40.4,-58.5,31.3C-67.9,22.2,-78.1,11.1,-82.7,-2.7C-87.3,-16.5,-86.4,-32.9,-78.4,-44.4C-70.3,-55.9,-55.1,-62.5,-40.8,-68.7C-26.6,-75,-13.3,-81.1,1.3,-83.4C15.9,-85.7,31.9,-84.3,45.5,-77.6Z" transform="translate(100 100)" />
</svg>
