<svg xmlns="http://www.w3.org/2000/svg" version="1.1" xmlns:xlink="http://www.w3.org/1999/xlink" xmlns:svgjs="http://svgjs.dev/svgjs" width="1440" height="560" preserveAspectRatio="none" viewBox="0 0 1440 560"><g mask="url(&quot;#SvgjsMask1002&quot;)" fill="none"><path d="M-73.81 378.21L-73.81 378.21" stroke="rgba(196, 196, 196, 1)" stroke-width="1.5"></path><path d="M-73.81 378.21L54.82 354.4" stroke="rgba(196, 196, 196, 1)" stroke-width="1.5"></path><path d="M-73.81 378.21L71.72 487.76" stroke="rgba(196, 196, 196, 1)" stroke-width="1.5"></path><path d="M-73.81 378.21L37.57 659.55" stroke="rgba(196, 196, 196, 1)" stroke-width="1.5"></path><path d="M-73.81 378.21L-82.17 687.92" stroke="rgba(196, 196, 196, 1)" stroke-width="1.5"></path><path d="M-73.81 378.21L203.88 530.23" stroke="rgba(196, 196, 196, 1)" stroke-width="1.5"></path><path d="M-73.81 378.21L260.37 407.04" stroke="rgba(196, 196, 196, 1)" stroke-width="1.5"></path><path d="M-82.17 687.92L-82.17 687.92" stroke="rgba(196, 196, 196, 1)" stroke-width="1.5"></path><path d="M-82.17 687.92L37.57 659.55" stroke="rgba(196, 196, 196, 1)" stroke-width="1.5"></path><path d="M-82.17 687.92L71.72 487.76" stroke="rgba(196, 196, 196, 1)" stroke-width="1.5"></path><path d="M-82.17 687.92L237.23 664.19" stroke="rgba(196, 196, 196, 1)" stroke-width="1.5"></path><path d="M54.82 354.4L54.82 354.4" stroke="rgba(196, 196, 196, 1)" stroke-width="1.5"></path><path d="M54.82 354.4L71.72 487.76" stroke="rgba(196, 196, 196, 1)" stroke-width="1.5"></path><path d="M71.72 487.76L71.72 487.76" stroke="rgba(196, 196, 196, 1)" stroke-width="1.5"></path><path d="M71.72 487.76L203.88 530.23" stroke="rgba(196, 196, 196, 1)" stroke-width="1.5"></path><path d="M71.72 487.76L37.57 659.55" stroke="rgba(196, 196, 196, 1)" stroke-width="1.5"></path><path d="M37.57 659.55L37.57 659.55" stroke="rgba(196, 196, 196, 1)" stroke-width="1.5"></path><path d="M260.37 407.04L260.37 407.04" stroke="rgba(196, 196, 196, 1)" stroke-width="1.5"></path><path d="M260.37 407.04L203.88 530.23" stroke="rgba(196, 196, 196, 1)" stroke-width="1.5"></path><path d="M260.37 407.04L393.86 489.72" stroke="rgba(196, 196, 196, 1)" stroke-width="1.5"></path><path d="M260.37 407.04L71.72 487.76" stroke="rgba(196, 196, 196, 1)" stroke-width="1.5"></path><path d="M203.88 530.23L203.88 530.23" stroke="rgba(196, 196, 196, 1)" stroke-width="1.5"></path><path d="M203.88 530.23L237.23 664.19" stroke="rgba(196, 196, 196, 1)" stroke-width="1.5"></path><path d="M203.88 530.23L393.86 489.72" stroke="rgba(196, 196, 196, 1)" stroke-width="1.5"></path><path d="M203.88 530.23L37.57 659.55" stroke="rgba(196, 196, 196, 1)" stroke-width="1.5"></path><path d="M203.88 530.23L54.82 354.4" stroke="rgba(196, 196, 196, 1)" stroke-width="1.5"></path><path d="M237.23 664.19L237.23 664.19" stroke="rgba(196, 196, 196, 1)" stroke-width="1.5"></path><path d="M237.23 664.19L37.57 659.55" stroke="rgba(196, 196, 196, 1)" stroke-width="1.5"></path><path d="M237.23 664.19L393.86 489.72" stroke="rgba(196, 196, 196, 1)" stroke-width="1.5"></path><path d="M237.23 664.19L71.72 487.76" stroke="rgba(196, 196, 196, 1)" stroke-width="1.5"></path><path d="M237.23 664.19L260.37 407.04" stroke="rgba(196, 196, 196, 1)" stroke-width="1.5"></path><path d="M237.23 664.19L515.75 694.45" stroke="rgba(196, 196, 196, 1)" stroke-width="1.5"></path><path d="M393.86 489.72L393.86 489.72" stroke="rgba(196, 196, 196, 1)" stroke-width="1.5"></path><path d="M393.86 489.72L550.94 548.86" stroke="rgba(196, 196, 196, 1)" stroke-width="1.5"></path><path d="M393.86 489.72L515.75 694.45" stroke="rgba(196, 196, 196, 1)" stroke-width="1.5"></path><path d="M393.86 489.72L672.93 502.14" stroke="rgba(196, 196, 196, 1)" stroke-width="1.5"></path><path d="M550.94 548.86L550.94 548.86" stroke="rgba(196, 196, 196, 1)" stroke-width="1.5"></path><path d="M550.94 548.86L672.93 502.14" stroke="rgba(196, 196, 196, 1)" stroke-width="1.5"></path><path d="M550.94 548.86L515.75 694.45" stroke="rgba(196, 196, 196, 1)" stroke-width="1.5"></path><path d="M515.75 694.45L515.75 694.45" stroke="rgba(196, 196, 196, 1)" stroke-width="1.5"></path><path d="M515.75 694.45L691.01 688.08" stroke="rgba(196, 196, 196, 1)" stroke-width="1.5"></path><path d="M681.08 210.64L681.08 210.64" stroke="rgba(196, 196, 196, 1)" stroke-width="1.5"></path><path d="M681.08 210.64L659.61 375.13" stroke="rgba(196, 196, 196, 1)" stroke-width="1.5"></path><path d="M681.08 210.64L862.31 246.98" stroke="rgba(196, 196, 196, 1)" stroke-width="1.5"></path><path d="M681.08 210.64L798.45 366.42" stroke="rgba(196, 196, 196, 1)" stroke-width="1.5"></path><path d="M659.61 375.13L659.61 375.13" stroke="rgba(196, 196, 196, 1)" stroke-width="1.5"></path><path d="M659.61 375.13L672.93 502.14" stroke="rgba(196, 196, 196, 1)" stroke-width="1.5"></path><path d="M659.61 375.13L798.45 366.42" stroke="rgba(196, 196, 196, 1)" stroke-width="1.5"></path><path d="M672.93 502.14L672.93 502.14" stroke="rgba(196, 196, 196, 1)" stroke-width="1.5"></path><path d="M691.01 688.08L691.01 688.08" stroke="rgba(196, 196, 196, 1)" stroke-width="1.5"></path><path d="M691.01 688.08L841.57 657.28" stroke="rgba(196, 196, 196, 1)" stroke-width="1.5"></path><path d="M862.31 246.98L862.31 246.98" stroke="rgba(196, 196, 196, 1)" stroke-width="1.5"></path><path d="M862.31 246.98L982.4 208.78" stroke="rgba(196, 196, 196, 1)" stroke-width="1.5"></path><path d="M862.31 246.98L798.45 366.42" stroke="rgba(196, 196, 196, 1)" stroke-width="1.5"></path><path d="M862.31 246.98L947.62 107.49" stroke="rgba(196, 196, 196, 1)" stroke-width="1.5"></path><path d="M862.31 246.98L972.97 395.98" stroke="rgba(196, 196, 196, 1)" stroke-width="1.5"></path><path d="M862.31 246.98L1094.91 242.42" stroke="rgba(196, 196, 196, 1)" stroke-width="1.5"></path><path d="M798.45 366.42L798.45 366.42" stroke="rgba(196, 196, 196, 1)" stroke-width="1.5"></path><path d="M798.45 366.42L808.13 515" stroke="rgba(196, 196, 196, 1)" stroke-width="1.5"></path><path d="M798.45 366.42L972.97 395.98" stroke="rgba(196, 196, 196, 1)" stroke-width="1.5"></path><path d="M808.13 515L808.13 515" stroke="rgba(196, 196, 196, 1)" stroke-width="1.5"></path><path d="M808.13 515L672.93 502.14" stroke="rgba(196, 196, 196, 1)" stroke-width="1.5"></path><path d="M808.13 515L841.57 657.28" stroke="rgba(196, 196, 196, 1)" stroke-width="1.5"></path><path d="M841.57 657.28L841.57 657.28" stroke="rgba(196, 196, 196, 1)" stroke-width="1.5"></path><path d="M953.48 -81.34L953.48 -81.34" stroke="rgba(196, 196, 196, 1)" stroke-width="1.5"></path><path d="M953.48 -81.34L1098.64 -65.16" stroke="rgba(196, 196, 196, 1)" stroke-width="1.5"></path><path d="M953.48 -81.34L947.62 107.49" stroke="rgba(196, 196, 196, 1)" stroke-width="1.5"></path><path d="M953.48 -81.34L1122.31 102.62" stroke="rgba(196, 196, 196, 1)" stroke-width="1.5"></path><path d="M953.48 -81.34L982.4 208.78" stroke="rgba(196, 196, 196, 1)" stroke-width="1.5"></path><path d="M953.48 -81.34L1250.93 -104.84" stroke="rgba(196, 196, 196, 1)" stroke-width="1.5"></path><path d="M953.48 -81.34L862.31 246.98" stroke="rgba(196, 196, 196, 1)" stroke-width="1.5"></path><path d="M947.62 107.49L947.62 107.49" stroke="rgba(196, 196, 196, 1)" stroke-width="1.5"></path><path d="M947.62 107.49L982.4 208.78" stroke="rgba(196, 196, 196, 1)" stroke-width="1.5"></path><path d="M947.62 107.49L1122.31 102.62" stroke="rgba(196, 196, 196, 1)" stroke-width="1.5"></path><path d="M947.62 107.49L1094.91 242.42" stroke="rgba(196, 196, 196, 1)" stroke-width="1.5"></path><path d="M947.62 107.49L1098.64 -65.16" stroke="rgba(196, 196, 196, 1)" stroke-width="1.5"></path><path d="M982.4 208.78L982.4 208.78" stroke="rgba(196, 196, 196, 1)" stroke-width="1.5"></path><path d="M982.4 208.78L1094.91 242.42" stroke="rgba(196, 196, 196, 1)" stroke-width="1.5"></path><path d="M982.4 208.78L1122.31 102.62" stroke="rgba(196, 196, 196, 1)" stroke-width="1.5"></path><path d="M972.97 395.98L972.97 395.98" stroke="rgba(196, 196, 196, 1)" stroke-width="1.5"></path><path d="M972.97 395.98L965.46 555.25" stroke="rgba(196, 196, 196, 1)" stroke-width="1.5"></path><path d="M965.46 555.25L965.46 555.25" stroke="rgba(196, 196, 196, 1)" stroke-width="1.5"></path><path d="M965.46 555.25L998.02 679.66" stroke="rgba(196, 196, 196, 1)" stroke-width="1.5"></path><path d="M965.46 555.25L841.57 657.28" stroke="rgba(196, 196, 196, 1)" stroke-width="1.5"></path><path d="M965.46 555.25L808.13 515" stroke="rgba(196, 196, 196, 1)" stroke-width="1.5"></path><path d="M965.46 555.25L1128.07 530.41" stroke="rgba(196, 196, 196, 1)" stroke-width="1.5"></path><path d="M998.02 679.66L998.02 679.66" stroke="rgba(196, 196, 196, 1)" stroke-width="1.5"></path><path d="M998.02 679.66L1115.13 703.96" stroke="rgba(196, 196, 196, 1)" stroke-width="1.5"></path><path d="M998.02 679.66L841.57 657.28" stroke="rgba(196, 196, 196, 1)" stroke-width="1.5"></path><path d="M998.02 679.66L1128.07 530.41" stroke="rgba(196, 196, 196, 1)" stroke-width="1.5"></path><path d="M998.02 679.66L808.13 515" stroke="rgba(196, 196, 196, 1)" stroke-width="1.5"></path><path d="M1098.64 -65.16L1098.64 -65.16" stroke="rgba(196, 196, 196, 1)" stroke-width="1.5"></path><path d="M1098.64 -65.16L1250.93 -104.84" stroke="rgba(196, 196, 196, 1)" stroke-width="1.5"></path><path d="M1098.64 -65.16L1122.31 102.62" stroke="rgba(196, 196, 196, 1)" stroke-width="1.5"></path><path d="M1098.64 -65.16L1283.26 46.71" stroke="rgba(196, 196, 196, 1)" stroke-width="1.5"></path><path d="M1122.31 102.62L1122.31 102.62" stroke="rgba(196, 196, 196, 1)" stroke-width="1.5"></path><path d="M1122.31 102.62L1094.91 242.42" stroke="rgba(196, 196, 196, 1)" stroke-width="1.5"></path><path d="M1122.31 102.62L1249.29 199.36" stroke="rgba(196, 196, 196, 1)" stroke-width="1.5"></path><path d="M1122.31 102.62L1283.26 46.71" stroke="rgba(196, 196, 196, 1)" stroke-width="1.5"></path><path d="M1094.91 242.42L1094.91 242.42" stroke="rgba(196, 196, 196, 1)" stroke-width="1.5"></path><path d="M1094.91 242.42L1149.18 346.4" stroke="rgba(196, 196, 196, 1)" stroke-width="1.5"></path><path d="M1094.91 242.42L1249.29 199.36" stroke="rgba(196, 196, 196, 1)" stroke-width="1.5"></path><path d="M1149.18 346.4L1149.18 346.4" stroke="rgba(196, 196, 196, 1)" stroke-width="1.5"></path><path d="M1149.18 346.4L1286.19 373.57" stroke="rgba(196, 196, 196, 1)" stroke-width="1.5"></path><path d="M1149.18 346.4L1249.29 199.36" stroke="rgba(196, 196, 196, 1)" stroke-width="1.5"></path><path d="M1149.18 346.4L972.97 395.98" stroke="rgba(196, 196, 196, 1)" stroke-width="1.5"></path><path d="M1149.18 346.4L1128.07 530.41" stroke="rgba(196, 196, 196, 1)" stroke-width="1.5"></path><path d="M1149.18 346.4L982.4 208.78" stroke="rgba(196, 196, 196, 1)" stroke-width="1.5"></path><path d="M1128.07 530.41L1128.07 530.41" stroke="rgba(196, 196, 196, 1)" stroke-width="1.5"></path><path d="M1128.07 530.41L1115.13 703.96" stroke="rgba(196, 196, 196, 1)" stroke-width="1.5"></path><path d="M1128.07 530.41L1293.04 640.01" stroke="rgba(196, 196, 196, 1)" stroke-width="1.5"></path><path d="M1128.07 530.41L972.97 395.98" stroke="rgba(196, 196, 196, 1)" stroke-width="1.5"></path><path d="M1115.13 703.96L1115.13 703.96" stroke="rgba(196, 196, 196, 1)" stroke-width="1.5"></path><path d="M1250.93 -104.84L1250.93 -104.84" stroke="rgba(196, 196, 196, 1)" stroke-width="1.5"></path><path d="M1250.93 -104.84L1283.26 46.71" stroke="rgba(196, 196, 196, 1)" stroke-width="1.5"></path><path d="M1250.93 -104.84L1432 -52.28" stroke="rgba(196, 196, 196, 1)" stroke-width="1.5"></path><path d="M1250.93 -104.84L1393.69 82.3" stroke="rgba(196, 196, 196, 1)" stroke-width="1.5"></path><path d="M1250.93 -104.84L1122.31 102.62" stroke="rgba(196, 196, 196, 1)" stroke-width="1.5"></path><path d="M1283.26 46.71L1283.26 46.71" stroke="rgba(196, 196, 196, 1)" stroke-width="1.5"></path><path d="M1283.26 46.71L1393.69 82.3" stroke="rgba(196, 196, 196, 1)" stroke-width="1.5"></path><path d="M1249.29 199.36L1249.29 199.36" stroke="rgba(196, 196, 196, 1)" stroke-width="1.5"></path><path d="M1249.29 199.36L1283.26 46.71" stroke="rgba(196, 196, 196, 1)" stroke-width="1.5"></path><path d="M1286.19 373.57L1286.19 373.57" stroke="rgba(196, 196, 196, 1)" stroke-width="1.5"></path><path d="M1293.04 640.01L1293.04 640.01" stroke="rgba(196, 196, 196, 1)" stroke-width="1.5"></path><path d="M1293.04 640.01L1416.41 637.76" stroke="rgba(196, 196, 196, 1)" stroke-width="1.5"></path><path d="M1293.04 640.01L1403.35 503.47" stroke="rgba(196, 196, 196, 1)" stroke-width="1.5"></path><path d="M1293.04 640.01L1115.13 703.96" stroke="rgba(196, 196, 196, 1)" stroke-width="1.5"></path><path d="M1293.04 640.01L1541.99 659.79" stroke="rgba(196, 196, 196, 1)" stroke-width="1.5"></path><path d="M1432 -52.28L1432 -52.28" stroke="rgba(196, 196, 196, 1)" stroke-width="1.5"></path><path d="M1432 -52.28L1393.69 82.3" stroke="rgba(196, 196, 196, 1)" stroke-width="1.5"></path><path d="M1432 -52.28L1564.34 47.73" stroke="rgba(196, 196, 196, 1)" stroke-width="1.5"></path><path d="M1432 -52.28L1597.71 -41.02" stroke="rgba(196, 196, 196, 1)" stroke-width="1.5"></path><path d="M1432 -52.28L1283.26 46.71" stroke="rgba(196, 196, 196, 1)" stroke-width="1.5"></path><path d="M1432 -52.28L1428.49 196.25" stroke="rgba(196, 196, 196, 1)" stroke-width="1.5"></path><path d="M1393.69 82.3L1393.69 82.3" stroke="rgba(196, 196, 196, 1)" stroke-width="1.5"></path><path d="M1393.69 82.3L1428.49 196.25" stroke="rgba(196, 196, 196, 1)" stroke-width="1.5"></path><path d="M1428.49 196.25L1428.49 196.25" stroke="rgba(196, 196, 196, 1)" stroke-width="1.5"></path><path d="M1428.49 196.25L1450.41 359.84" stroke="rgba(196, 196, 196, 1)" stroke-width="1.5"></path><path d="M1428.49 196.25L1594.47 190.32" stroke="rgba(196, 196, 196, 1)" stroke-width="1.5"></path><path d="M1428.49 196.25L1249.29 199.36" stroke="rgba(196, 196, 196, 1)" stroke-width="1.5"></path><path d="M1428.49 196.25L1564.34 47.73" stroke="rgba(196, 196, 196, 1)" stroke-width="1.5"></path><path d="M1450.41 359.84L1450.41 359.84" stroke="rgba(196, 196, 196, 1)" stroke-width="1.5"></path><path d="M1450.41 359.84L1403.35 503.47" stroke="rgba(196, 196, 196, 1)" stroke-width="1.5"></path><path d="M1450.41 359.84L1611.73 392.95" stroke="rgba(196, 196, 196, 1)" stroke-width="1.5"></path><path d="M1450.41 359.84L1286.19 373.57" stroke="rgba(196, 196, 196, 1)" stroke-width="1.5"></path><path d="M1403.35 503.47L1403.35 503.47" stroke="rgba(196, 196, 196, 1)" stroke-width="1.5"></path><path d="M1403.35 503.47L1416.41 637.76" stroke="rgba(196, 196, 196, 1)" stroke-width="1.5"></path><path d="M1403.35 503.47L1538.43 561.11" stroke="rgba(196, 196, 196, 1)" stroke-width="1.5"></path><path d="M1403.35 503.47L1286.19 373.57" stroke="rgba(196, 196, 196, 1)" stroke-width="1.5"></path><path d="M1416.41 637.76L1416.41 637.76" stroke="rgba(196, 196, 196, 1)" stroke-width="1.5"></path><path d="M1416.41 637.76L1541.99 659.79" stroke="rgba(196, 196, 196, 1)" stroke-width="1.5"></path><path d="M1416.41 637.76L1538.43 561.11" stroke="rgba(196, 196, 196, 1)" stroke-width="1.5"></path><path d="M1416.41 637.76L1450.41 359.84" stroke="rgba(196, 196, 196, 1)" stroke-width="1.5"></path><path d="M1597.71 -41.02L1597.71 -41.02" stroke="rgba(196, 196, 196, 1)" stroke-width="1.5"></path><path d="M1597.71 -41.02L1564.34 47.73" stroke="rgba(196, 196, 196, 1)" stroke-width="1.5"></path><path d="M1597.71 -41.02L1594.47 190.32" stroke="rgba(196, 196, 196, 1)" stroke-width="1.5"></path><path d="M1597.71 -41.02L1393.69 82.3" stroke="rgba(196, 196, 196, 1)" stroke-width="1.5"></path><path d="M1597.71 -41.02L1428.49 196.25" stroke="rgba(196, 196, 196, 1)" stroke-width="1.5"></path><path d="M1564.34 47.73L1564.34 47.73" stroke="rgba(196, 196, 196, 1)" stroke-width="1.5"></path><path d="M1564.34 47.73L1594.47 190.32" stroke="rgba(196, 196, 196, 1)" stroke-width="1.5"></path><path d="M1594.47 190.32L1594.47 190.32" stroke="rgba(196, 196, 196, 1)" stroke-width="1.5"></path><path d="M1594.47 190.32L1611.73 392.95" stroke="rgba(196, 196, 196, 1)" stroke-width="1.5"></path><path d="M1594.47 190.32L1450.41 359.84" stroke="rgba(196, 196, 196, 1)" stroke-width="1.5"></path><path d="M1594.47 190.32L1393.69 82.3" stroke="rgba(196, 196, 196, 1)" stroke-width="1.5"></path><path d="M1611.73 392.95L1611.73 392.95" stroke="rgba(196, 196, 196, 1)" stroke-width="1.5"></path><path d="M1611.73 392.95L1538.43 561.11" stroke="rgba(196, 196, 196, 1)" stroke-width="1.5"></path><path d="M1611.73 392.95L1403.35 503.47" stroke="rgba(196, 196, 196, 1)" stroke-width="1.5"></path><path d="M1611.73 392.95L1428.49 196.25" stroke="rgba(196, 196, 196, 1)" stroke-width="1.5"></path><path d="M1611.73 392.95L1541.99 659.79" stroke="rgba(196, 196, 196, 1)" stroke-width="1.5"></path><path d="M1538.43 561.11L1538.43 561.11" stroke="rgba(196, 196, 196, 1)" stroke-width="1.5"></path><path d="M1538.43 561.11L1541.99 659.79" stroke="rgba(196, 196, 196, 1)" stroke-width="1.5"></path><path d="M1541.99 659.79L1541.99 659.79" stroke="rgba(196, 196, 196, 1)" stroke-width="1.5"></path><circle r="5" cx="-73.81" cy="378.21" fill="rgba(196, 196, 196, 1)"></circle><circle r="5" cx="-82.17" cy="687.92" fill="rgba(196, 196, 196, 1)"></circle><circle r="5" cx="54.82" cy="354.4" fill="rgba(196, 196, 196, 1)"></circle><circle r="5" cx="71.72" cy="487.76" fill="rgba(196, 196, 196, 1)"></circle><circle r="5" cx="37.57" cy="659.55" fill="rgba(196, 196, 196, 1)"></circle><circle r="5" cx="260.37" cy="407.04" fill="rgba(196, 196, 196, 1)"></circle><circle r="5" cx="203.88" cy="530.23" fill="rgba(196, 196, 196, 1)"></circle><circle r="5" cx="237.23" cy="664.19" fill="rgba(196, 196, 196, 1)"></circle><circle r="5" cx="393.86" cy="489.72" fill="rgba(196, 196, 196, 1)"></circle><circle r="5" cx="550.94" cy="548.86" fill="rgba(196, 196, 196, 1)"></circle><circle r="5" cx="515.75" cy="694.45" fill="rgba(196, 196, 196, 1)"></circle><circle r="5" cx="681.08" cy="210.64" fill="rgba(196, 196, 196, 1)"></circle><circle r="5" cx="659.61" cy="375.13" fill="rgba(196, 196, 196, 1)"></circle><circle r="5" cx="672.93" cy="502.14" fill="rgba(196, 196, 196, 1)"></circle><circle r="5" cx="691.01" cy="688.08" fill="rgba(196, 196, 196, 1)"></circle><circle r="5" cx="862.31" cy="246.98" fill="rgba(196, 196, 196, 1)"></circle><circle r="5" cx="798.45" cy="366.42" fill="rgba(196, 196, 196, 1)"></circle><circle r="5" cx="808.13" cy="515" fill="rgba(196, 196, 196, 1)"></circle><circle r="5" cx="841.57" cy="657.28" fill="rgba(196, 196, 196, 1)"></circle><circle r="5" cx="953.48" cy="-81.34" fill="rgba(196, 196, 196, 1)"></circle><circle r="5" cx="947.62" cy="107.49" fill="rgba(196, 196, 196, 1)"></circle><circle r="5" cx="982.4" cy="208.78" fill="rgba(196, 196, 196, 1)"></circle><circle r="5" cx="972.97" cy="395.98" fill="rgba(196, 196, 196, 1)"></circle><circle r="5" cx="965.46" cy="555.25" fill="rgba(196, 196, 196, 1)"></circle><circle r="5" cx="998.02" cy="679.66" fill="rgba(196, 196, 196, 1)"></circle><circle r="5" cx="1098.64" cy="-65.16" fill="rgba(196, 196, 196, 1)"></circle><circle r="5" cx="1122.31" cy="102.62" fill="rgba(196, 196, 196, 1)"></circle><circle r="5" cx="1094.91" cy="242.42" fill="rgba(196, 196, 196, 1)"></circle><circle r="5" cx="1149.18" cy="346.4" fill="rgba(196, 196, 196, 1)"></circle><circle r="5" cx="1128.07" cy="530.41" fill="rgba(196, 196, 196, 1)"></circle><circle r="5" cx="1115.13" cy="703.96" fill="rgba(196, 196, 196, 1)"></circle><circle r="5" cx="1250.93" cy="-104.84" fill="rgba(196, 196, 196, 1)"></circle><circle r="5" cx="1283.26" cy="46.71" fill="rgba(196, 196, 196, 1)"></circle><circle r="5" cx="1249.29" cy="199.36" fill="rgba(196, 196, 196, 1)"></circle><circle r="5" cx="1286.19" cy="373.57" fill="rgba(196, 196, 196, 1)"></circle><circle r="5" cx="1293.04" cy="640.01" fill="rgba(196, 196, 196, 1)"></circle><circle r="5" cx="1432" cy="-52.28" fill="rgba(196, 196, 196, 1)"></circle><circle r="5" cx="1393.69" cy="82.3" fill="rgba(196, 196, 196, 1)"></circle><circle r="5" cx="1428.49" cy="196.25" fill="rgba(196, 196, 196, 1)"></circle><circle r="5" cx="1450.41" cy="359.84" fill="rgba(196, 196, 196, 1)"></circle><circle r="5" cx="1403.35" cy="503.47" fill="rgba(196, 196, 196, 1)"></circle><circle r="5" cx="1416.41" cy="637.76" fill="rgba(196, 196, 196, 1)"></circle><circle r="5" cx="1597.71" cy="-41.02" fill="rgba(196, 196, 196, 1)"></circle><circle r="5" cx="1564.34" cy="47.73" fill="rgba(196, 196, 196, 1)"></circle><circle r="5" cx="1594.47" cy="190.32" fill="rgba(196, 196, 196, 1)"></circle><circle r="5" cx="1611.73" cy="392.95" fill="rgba(196, 196, 196, 1)"></circle><circle r="5" cx="1538.43" cy="561.11" fill="rgba(196, 196, 196, 1)"></circle><circle r="5" cx="1541.99" cy="659.79" fill="rgba(196, 196, 196, 1)"></circle><path d="M966.74 558.37L966.74 558.37" stroke="hsl(194.89999999999998, 100%, 67.5%)" stroke-width="1.5"></path><path d="M966.74 558.37L854.15 512.6" stroke="hsl(194.89999999999998, 100%, 67.5%)" stroke-width="1.5"></path><path d="M966.74 558.37L958.73 694.33" stroke="hsl(194.89999999999998, 100%, 67.5%)" stroke-width="1.5"></path><path d="M966.74 558.37L823.02 662.87" stroke="hsl(194.89999999999998, 100%, 67.5%)" stroke-width="1.5"></path><path d="M966.74 558.37L995.14 356.27" stroke="hsl(194.89999999999998, 100%, 67.5%)" stroke-width="1.5"></path><path d="M966.74 558.37L802.21 394.01" stroke="hsl(194.89999999999998, 100%, 67.5%)" stroke-width="1.5"></path><path d="M966.74 558.37L1162.14 691.34" stroke="hsl(194.89999999999998, 100%, 67.5%)" stroke-width="1.5"></path><path d="M1161.89 392.74L1161.89 392.74" stroke="hsl(194.89999999999998, 100%, 67.5%)" stroke-width="1.5"></path><path d="M1161.89 392.74L1280.73 406.8" stroke="hsl(194.89999999999998, 100%, 67.5%)" stroke-width="1.5"></path><path d="M1161.89 392.74L1128.02 243.42" stroke="hsl(194.89999999999998, 100%, 67.5%)" stroke-width="1.5"></path><path d="M1161.89 392.74L995.14 356.27" stroke="hsl(194.89999999999998, 100%, 67.5%)" stroke-width="1.5"></path><path d="M1161.89 392.74L1284.14 513.82" stroke="hsl(194.89999999999998, 100%, 67.5%)" stroke-width="1.5"></path><path d="M1161.89 392.74L1307.17 241.17" stroke="hsl(194.89999999999998, 100%, 67.5%)" stroke-width="1.5"></path><path d="M1238.95 -86.89L1238.95 -86.89" stroke="hsl(194.89999999999998, 100%, 67.5%)" stroke-width="1.5"></path><path d="M1238.95 -86.89L1279.51 46.05" stroke="hsl(194.89999999999998, 100%, 67.5%)" stroke-width="1.5"></path><path d="M1238.95 -86.89L1410.57 38.08" stroke="hsl(194.89999999999998, 100%, 67.5%)" stroke-width="1.5"></path><path d="M1238.95 -86.89L1448.06 -43.56" stroke="hsl(194.89999999999998, 100%, 67.5%)" stroke-width="1.5"></path><path d="M1284.14 513.82L1284.14 513.82" stroke="hsl(194.89999999999998, 100%, 67.5%)" stroke-width="1.5"></path><path d="M1284.14 513.82L1280.73 406.8" stroke="hsl(194.89999999999998, 100%, 67.5%)" stroke-width="1.5"></path><path d="M1284.14 513.82L1442.92 521.56" stroke="hsl(194.89999999999998, 100%, 67.5%)" stroke-width="1.5"></path><path d="M1284.14 513.82L1255.1 677.32" stroke="hsl(194.89999999999998, 100%, 67.5%)" stroke-width="1.5"></path><path d="M1284.14 513.82L1460.21 394.13" stroke="hsl(194.89999999999998, 100%, 67.5%)" stroke-width="1.5"></path><path d="M1460.21 394.13L1460.21 394.13" stroke="hsl(194.89999999999998, 100%, 67.5%)" stroke-width="1.5"></path><path d="M1460.21 394.13L1442.92 521.56" stroke="hsl(194.89999999999998, 100%, 67.5%)" stroke-width="1.5"></path><path d="M1460.21 394.13L1416.28 244.22" stroke="hsl(194.89999999999998, 100%, 67.5%)" stroke-width="1.5"></path><path d="M-45.39 537.38L-45.39 537.38" stroke="hsl(194.89999999999998, 100%, 67.5%)" stroke-width="1.5"></path><path d="M-45.39 537.38L-105.47 641.2" stroke="hsl(194.89999999999998, 100%, 67.5%)" stroke-width="1.5"></path><path d="M-45.39 537.38L74.75 522.3" stroke="hsl(194.89999999999998, 100%, 67.5%)" stroke-width="1.5"></path><path d="M-45.39 537.38L42.62 645.25" stroke="hsl(194.89999999999998, 100%, 67.5%)" stroke-width="1.5"></path><path d="M-45.39 537.38L206.54 492.22" stroke="hsl(194.89999999999998, 100%, 67.5%)" stroke-width="1.5"></path><path d="M-45.39 537.38L202.05 654.39" stroke="hsl(194.89999999999998, 100%, 67.5%)" stroke-width="1.5"></path><path d="M-45.39 537.38L527.52 545.95" stroke="hsl(194.89999999999998, 100%, 67.5%)" stroke-width="1.5"></path><path d="M-105.47 641.2L-105.47 641.2" stroke="hsl(194.89999999999998, 100%, 67.5%)" stroke-width="1.5"></path><path d="M-105.47 641.2L42.62 645.25" stroke="hsl(194.89999999999998, 100%, 67.5%)" stroke-width="1.5"></path><path d="M-105.47 641.2L74.75 522.3" stroke="hsl(194.89999999999998, 100%, 67.5%)" stroke-width="1.5"></path><path d="M-105.47 641.2L202.05 654.39" stroke="hsl(194.89999999999998, 100%, 67.5%)" stroke-width="1.5"></path><path d="M74.75 522.3L74.75 522.3" stroke="hsl(194.89999999999998, 100%, 67.5%)" stroke-width="1.5"></path><path d="M74.75 522.3L42.62 645.25" stroke="hsl(194.89999999999998, 100%, 67.5%)" stroke-width="1.5"></path><path d="M74.75 522.3L206.54 492.22" stroke="hsl(194.89999999999998, 100%, 67.5%)" stroke-width="1.5"></path><path d="M42.62 645.25L42.62 645.25" stroke="hsl(194.89999999999998, 100%, 67.5%)" stroke-width="1.5"></path><path d="M42.62 645.25L202.05 654.39" stroke="hsl(194.89999999999998, 100%, 67.5%)" stroke-width="1.5"></path><path d="M42.62 645.25L206.54 492.22" stroke="hsl(194.89999999999998, 100%, 67.5%)" stroke-width="1.5"></path><path d="M42.62 645.25L533.07 669.02" stroke="hsl(194.89999999999998, 100%, 67.5%)" stroke-width="1.5"></path><path d="M206.54 492.22L206.54 492.22" stroke="hsl(194.89999999999998, 100%, 67.5%)" stroke-width="1.5"></path><path d="M206.54 492.22L202.05 654.39" stroke="hsl(194.89999999999998, 100%, 67.5%)" stroke-width="1.5"></path><path d="M206.54 492.22L527.52 545.95" stroke="hsl(194.89999999999998, 100%, 67.5%)" stroke-width="1.5"></path><path d="M202.05 654.39L202.05 654.39" stroke="hsl(194.89999999999998, 100%, 67.5%)" stroke-width="1.5"></path><path d="M202.05 654.39L74.75 522.3" stroke="hsl(194.89999999999998, 100%, 67.5%)" stroke-width="1.5"></path><path d="M527.52 545.95L527.52 545.95" stroke="hsl(194.89999999999998, 100%, 67.5%)" stroke-width="1.5"></path><path d="M527.52 545.95L533.07 669.02" stroke="hsl(194.89999999999998, 100%, 67.5%)" stroke-width="1.5"></path><path d="M527.52 545.95L665.61 531.35" stroke="hsl(194.89999999999998, 100%, 67.5%)" stroke-width="1.5"></path><path d="M527.52 545.95L643.27 393.17" stroke="hsl(194.89999999999998, 100%, 67.5%)" stroke-width="1.5"></path><path d="M533.07 669.02L533.07 669.02" stroke="hsl(194.89999999999998, 100%, 67.5%)" stroke-width="1.5"></path><path d="M533.07 669.02L683.39 698.1" stroke="hsl(194.89999999999998, 100%, 67.5%)" stroke-width="1.5"></path><path d="M533.07 669.02L665.61 531.35" stroke="hsl(194.89999999999998, 100%, 67.5%)" stroke-width="1.5"></path><path d="M533.07 669.02L823.02 662.87" stroke="hsl(194.89999999999998, 100%, 67.5%)" stroke-width="1.5"></path><path d="M533.07 669.02L643.27 393.17" stroke="hsl(194.89999999999998, 100%, 67.5%)" stroke-width="1.5"></path><path d="M533.07 669.02L202.05 654.39" stroke="hsl(194.89999999999998, 100%, 67.5%)" stroke-width="1.5"></path><path d="M643.27 393.17L643.27 393.17" stroke="hsl(194.89999999999998, 100%, 67.5%)" stroke-width="1.5"></path><path d="M643.27 393.17L665.61 531.35" stroke="hsl(194.89999999999998, 100%, 67.5%)" stroke-width="1.5"></path><path d="M643.27 393.17L802.21 394.01" stroke="hsl(194.89999999999998, 100%, 67.5%)" stroke-width="1.5"></path><path d="M643.27 393.17L854.15 512.6" stroke="hsl(194.89999999999998, 100%, 67.5%)" stroke-width="1.5"></path><path d="M665.61 531.35L665.61 531.35" stroke="hsl(194.89999999999998, 100%, 67.5%)" stroke-width="1.5"></path><path d="M683.39 698.1L683.39 698.1" stroke="hsl(194.89999999999998, 100%, 67.5%)" stroke-width="1.5"></path><path d="M683.39 698.1L823.02 662.87" stroke="hsl(194.89999999999998, 100%, 67.5%)" stroke-width="1.5"></path><path d="M802.21 394.01L802.21 394.01" stroke="hsl(194.89999999999998, 100%, 67.5%)" stroke-width="1.5"></path><path d="M802.21 394.01L854.15 512.6" stroke="hsl(194.89999999999998, 100%, 67.5%)" stroke-width="1.5"></path><path d="M802.21 394.01L665.61 531.35" stroke="hsl(194.89999999999998, 100%, 67.5%)" stroke-width="1.5"></path><path d="M854.15 512.6L854.15 512.6" stroke="hsl(194.89999999999998, 100%, 67.5%)" stroke-width="1.5"></path><path d="M854.15 512.6L823.02 662.87" stroke="hsl(194.89999999999998, 100%, 67.5%)" stroke-width="1.5"></path><path d="M823.02 662.87L823.02 662.87" stroke="hsl(194.89999999999998, 100%, 67.5%)" stroke-width="1.5"></path><path d="M823.02 662.87L958.73 694.33" stroke="hsl(194.89999999999998, 100%, 67.5%)" stroke-width="1.5"></path><path d="M984.93 238.31L984.93 238.31" stroke="hsl(194.89999999999998, 100%, 67.5%)" stroke-width="1.5"></path><path d="M984.93 238.31L995.14 356.27" stroke="hsl(194.89999999999998, 100%, 67.5%)" stroke-width="1.5"></path><path d="M984.93 238.31L1128.02 243.42" stroke="hsl(194.89999999999998, 100%, 67.5%)" stroke-width="1.5"></path><path d="M995.14 356.27L995.14 356.27" stroke="hsl(194.89999999999998, 100%, 67.5%)" stroke-width="1.5"></path><path d="M995.14 356.27L1128.02 243.42" stroke="hsl(194.89999999999998, 100%, 67.5%)" stroke-width="1.5"></path><path d="M995.14 356.27L802.21 394.01" stroke="hsl(194.89999999999998, 100%, 67.5%)" stroke-width="1.5"></path><path d="M958.73 694.33L958.73 694.33" stroke="hsl(194.89999999999998, 100%, 67.5%)" stroke-width="1.5"></path><path d="M958.73 694.33L1162.14 691.34" stroke="hsl(194.89999999999998, 100%, 67.5%)" stroke-width="1.5"></path><path d="M958.73 694.33L854.15 512.6" stroke="hsl(194.89999999999998, 100%, 67.5%)" stroke-width="1.5"></path><path d="M958.73 694.33L683.39 698.1" stroke="hsl(194.89999999999998, 100%, 67.5%)" stroke-width="1.5"></path><path d="M958.73 694.33L1255.1 677.32" stroke="hsl(194.89999999999998, 100%, 67.5%)" stroke-width="1.5"></path><path d="M1128.02 243.42L1128.02 243.42" stroke="hsl(194.89999999999998, 100%, 67.5%)" stroke-width="1.5"></path><path d="M1162.14 691.34L1162.14 691.34" stroke="hsl(194.89999999999998, 100%, 67.5%)" stroke-width="1.5"></path><path d="M1162.14 691.34L1255.1 677.32" stroke="hsl(194.89999999999998, 100%, 67.5%)" stroke-width="1.5"></path><path d="M1162.14 691.34L1284.14 513.82" stroke="hsl(194.89999999999998, 100%, 67.5%)" stroke-width="1.5"></path><path d="M1162.14 691.34L1454.05 712.48" stroke="hsl(194.89999999999998, 100%, 67.5%)" stroke-width="1.5"></path><path d="M1162.14 691.34L1161.89 392.74" stroke="hsl(194.89999999999998, 100%, 67.5%)" stroke-width="1.5"></path><path d="M1279.51 46.05L1279.51 46.05" stroke="hsl(194.89999999999998, 100%, 67.5%)" stroke-width="1.5"></path><path d="M1279.51 46.05L1410.57 38.08" stroke="hsl(194.89999999999998, 100%, 67.5%)" stroke-width="1.5"></path><path d="M1279.51 46.05L1448.06 -43.56" stroke="hsl(194.89999999999998, 100%, 67.5%)" stroke-width="1.5"></path><path d="M1279.51 46.05L1307.17 241.17" stroke="hsl(194.89999999999998, 100%, 67.5%)" stroke-width="1.5"></path><path d="M1279.51 46.05L1416.28 244.22" stroke="hsl(194.89999999999998, 100%, 67.5%)" stroke-width="1.5"></path><path d="M1279.51 46.05L1128.02 243.42" stroke="hsl(194.89999999999998, 100%, 67.5%)" stroke-width="1.5"></path><path d="M1307.17 241.17L1307.17 241.17" stroke="hsl(194.89999999999998, 100%, 67.5%)" stroke-width="1.5"></path><path d="M1307.17 241.17L1416.28 244.22" stroke="hsl(194.89999999999998, 100%, 67.5%)" stroke-width="1.5"></path><path d="M1307.17 241.17L1280.73 406.8" stroke="hsl(194.89999999999998, 100%, 67.5%)" stroke-width="1.5"></path><path d="M1307.17 241.17L1128.02 243.42" stroke="hsl(194.89999999999998, 100%, 67.5%)" stroke-width="1.5"></path><path d="M1307.17 241.17L1460.21 394.13" stroke="hsl(194.89999999999998, 100%, 67.5%)" stroke-width="1.5"></path><path d="M1280.73 406.8L1280.73 406.8" stroke="hsl(194.89999999999998, 100%, 67.5%)" stroke-width="1.5"></path><path d="M1255.1 677.32L1255.1 677.32" stroke="hsl(194.89999999999998, 100%, 67.5%)" stroke-width="1.5"></path><path d="M1448.06 -43.56L1448.06 -43.56" stroke="hsl(194.89999999999998, 100%, 67.5%)" stroke-width="1.5"></path><path d="M1448.06 -43.56L1410.57 38.08" stroke="hsl(194.89999999999998, 100%, 67.5%)" stroke-width="1.5"></path><path d="M1448.06 -43.56L1416.28 244.22" stroke="hsl(194.89999999999998, 100%, 67.5%)" stroke-width="1.5"></path><path d="M1448.06 -43.56L1307.17 241.17" stroke="hsl(194.89999999999998, 100%, 67.5%)" stroke-width="1.5"></path><path d="M1448.06 -43.56L1612.5 340.23" stroke="hsl(194.89999999999998, 100%, 67.5%)" stroke-width="1.5"></path><path d="M1410.57 38.08L1410.57 38.08" stroke="hsl(194.89999999999998, 100%, 67.5%)" stroke-width="1.5"></path><path d="M1416.28 244.22L1416.28 244.22" stroke="hsl(194.89999999999998, 100%, 67.5%)" stroke-width="1.5"></path><path d="M1416.28 244.22L1410.57 38.08" stroke="hsl(194.89999999999998, 100%, 67.5%)" stroke-width="1.5"></path><path d="M1416.28 244.22L1280.73 406.8" stroke="hsl(194.89999999999998, 100%, 67.5%)" stroke-width="1.5"></path><path d="M1442.92 521.56L1442.92 521.56" stroke="hsl(194.89999999999998, 100%, 67.5%)" stroke-width="1.5"></path><path d="M1454.05 712.48L1454.05 712.48" stroke="hsl(194.89999999999998, 100%, 67.5%)" stroke-width="1.5"></path><path d="M1454.05 712.48L1552.56 655.94" stroke="hsl(194.89999999999998, 100%, 67.5%)" stroke-width="1.5"></path><path d="M1612.5 340.23L1612.5 340.23" stroke="hsl(194.89999999999998, 100%, 67.5%)" stroke-width="1.5"></path><path d="M1612.5 340.23L1460.21 394.13" stroke="hsl(194.89999999999998, 100%, 67.5%)" stroke-width="1.5"></path><path d="M1612.5 340.23L1608.48 549.63" stroke="hsl(194.89999999999998, 100%, 67.5%)" stroke-width="1.5"></path><path d="M1612.5 340.23L1416.28 244.22" stroke="hsl(194.89999999999998, 100%, 67.5%)" stroke-width="1.5"></path><path d="M1612.5 340.23L1442.92 521.56" stroke="hsl(194.89999999999998, 100%, 67.5%)" stroke-width="1.5"></path><path d="M1608.48 549.63L1608.48 549.63" stroke="hsl(194.89999999999998, 100%, 67.5%)" stroke-width="1.5"></path><path d="M1608.48 549.63L1552.56 655.94" stroke="hsl(194.89999999999998, 100%, 67.5%)" stroke-width="1.5"></path><path d="M1608.48 549.63L1442.92 521.56" stroke="hsl(194.89999999999998, 100%, 67.5%)" stroke-width="1.5"></path><path d="M1608.48 549.63L1460.21 394.13" stroke="hsl(194.89999999999998, 100%, 67.5%)" stroke-width="1.5"></path><path d="M1552.56 655.94L1552.56 655.94" stroke="hsl(194.89999999999998, 100%, 67.5%)" stroke-width="1.5"></path><circle r="25" cx="966.74" cy="558.37" fill="url(&quot;#SvgjsRadialGradient1003&quot;)"></circle><circle r="25" cx="1161.89" cy="392.74" fill="url(&quot;#SvgjsRadialGradient1003&quot;)"></circle><circle r="25" cx="1238.95" cy="-86.89" fill="url(&quot;#SvgjsRadialGradient1003&quot;)"></circle><circle r="25" cx="1284.14" cy="513.82" fill="url(&quot;#SvgjsRadialGradient1003&quot;)"></circle><circle r="25" cx="1460.21" cy="394.13" fill="url(&quot;#SvgjsRadialGradient1003&quot;)"></circle><circle r="5" cx="-45.39" cy="537.38" fill="#85e1ff"></circle><circle r="5" cx="-105.47" cy="641.2" fill="#85e1ff"></circle><circle r="5" cx="74.75" cy="522.3" fill="#85e1ff"></circle><circle r="5" cx="42.62" cy="645.25" fill="#85e1ff"></circle><circle r="5" cx="206.54" cy="492.22" fill="#85e1ff"></circle><circle r="5" cx="202.05" cy="654.39" fill="#85e1ff"></circle><circle r="5" cx="527.52" cy="545.95" fill="#85e1ff"></circle><circle r="5" cx="533.07" cy="669.02" fill="#85e1ff"></circle><circle r="5" cx="643.27" cy="393.17" fill="#85e1ff"></circle><circle r="5" cx="665.61" cy="531.35" fill="#85e1ff"></circle><circle r="5" cx="683.39" cy="698.1" fill="#85e1ff"></circle><circle r="5" cx="802.21" cy="394.01" fill="#85e1ff"></circle><circle r="5" cx="854.15" cy="512.6" fill="#85e1ff"></circle><circle r="5" cx="823.02" cy="662.87" fill="#85e1ff"></circle><circle r="5" cx="984.93" cy="238.31" fill="#85e1ff"></circle><circle r="5" cx="995.14" cy="356.27" fill="#85e1ff"></circle><circle r="5" cx="958.73" cy="694.33" fill="#85e1ff"></circle><circle r="5" cx="1128.02" cy="243.42" fill="#85e1ff"></circle><circle r="5" cx="1162.14" cy="691.34" fill="#85e1ff"></circle><circle r="5" cx="1279.51" cy="46.05" fill="#85e1ff"></circle><circle r="5" cx="1307.17" cy="241.17" fill="#85e1ff"></circle><circle r="5" cx="1280.73" cy="406.8" fill="#85e1ff"></circle><circle r="5" cx="1255.1" cy="677.32" fill="#85e1ff"></circle><circle r="5" cx="1448.06" cy="-43.56" fill="#85e1ff"></circle><circle r="5" cx="1410.57" cy="38.08" fill="#85e1ff"></circle><circle r="5" cx="1416.28" cy="244.22" fill="#85e1ff"></circle><circle r="5" cx="1442.92" cy="521.56" fill="#85e1ff"></circle><circle r="5" cx="1454.05" cy="712.48" fill="#85e1ff"></circle><circle r="5" cx="1612.5" cy="340.23" fill="#85e1ff"></circle><circle r="5" cx="1608.48" cy="549.63" fill="#85e1ff"></circle><circle r="5" cx="1552.56" cy="655.94" fill="#85e1ff"></circle></g><defs><mask id="SvgjsMask1002"><rect width="1440" height="560" fill="#ffffff"></rect></mask><radialGradient id="SvgjsRadialGradient1003"><stop stop-color="#ffffff" offset="0.1"></stop><stop stop-color="rgba(10, 194, 255, 1)" offset="0.2"></stop><stop stop-color="rgba(10, 194, 255, 0)" offset="1"></stop></radialGradient></defs></svg>