<svg xmlns="http://www.w3.org/2000/svg" version="1.1" xmlns:xlink="http://www.w3.org/1999/xlink" xmlns:svgjs="http://svgjs.dev/svgjs" width="1440" height="560" preserveAspectRatio="none" viewBox="0 0 1440 560"><g mask="url(&quot;#SvgjsMask1004&quot;)" fill="none"><path d="M-57.95 338.09L-57.95 338.09" stroke="rgba(188, 242, 246, 1)" stroke-width="1.5"></path><path d="M-57.95 338.09L75.04 396.95" stroke="rgba(188, 242, 246, 1)" stroke-width="1.5"></path><path d="M-57.95 338.09L-40.71 515.08" stroke="rgba(188, 242, 246, 1)" stroke-width="1.5"></path><path d="M-57.95 338.09L56.22 544.14" stroke="rgba(188, 242, 246, 1)" stroke-width="1.5"></path><path d="M-57.95 338.09L189.65 387.17" stroke="rgba(188, 242, 246, 1)" stroke-width="1.5"></path><path d="M-40.71 515.08L-40.71 515.08" stroke="rgba(188, 242, 246, 1)" stroke-width="1.5"></path><path d="M-40.71 515.08L56.22 544.14" stroke="rgba(188, 242, 246, 1)" stroke-width="1.5"></path><path d="M-40.71 515.08L-60.79 674.6" stroke="rgba(188, 242, 246, 1)" stroke-width="1.5"></path><path d="M-40.71 515.08L75.04 396.95" stroke="rgba(188, 242, 246, 1)" stroke-width="1.5"></path><path d="M-40.71 515.08L85.2 646.85" stroke="rgba(188, 242, 246, 1)" stroke-width="1.5"></path><path d="M-60.79 674.6L-60.79 674.6" stroke="rgba(188, 242, 246, 1)" stroke-width="1.5"></path><path d="M-60.79 674.6L85.2 646.85" stroke="rgba(188, 242, 246, 1)" stroke-width="1.5"></path><path d="M-60.79 674.6L56.22 544.14" stroke="rgba(188, 242, 246, 1)" stroke-width="1.5"></path><path d="M75.04 396.95L75.04 396.95" stroke="rgba(188, 242, 246, 1)" stroke-width="1.5"></path><path d="M75.04 396.95L189.65 387.17" stroke="rgba(188, 242, 246, 1)" stroke-width="1.5"></path><path d="M75.04 396.95L56.22 544.14" stroke="rgba(188, 242, 246, 1)" stroke-width="1.5"></path><path d="M75.04 396.95L213.06 535.02" stroke="rgba(188, 242, 246, 1)" stroke-width="1.5"></path><path d="M75.04 396.95L85.2 646.85" stroke="rgba(188, 242, 246, 1)" stroke-width="1.5"></path><path d="M56.22 544.14L56.22 544.14" stroke="rgba(188, 242, 246, 1)" stroke-width="1.5"></path><path d="M56.22 544.14L85.2 646.85" stroke="rgba(188, 242, 246, 1)" stroke-width="1.5"></path><path d="M56.22 544.14L213.06 535.02" stroke="rgba(188, 242, 246, 1)" stroke-width="1.5"></path><path d="M56.22 544.14L209.23 674.96" stroke="rgba(188, 242, 246, 1)" stroke-width="1.5"></path><path d="M85.2 646.85L85.2 646.85" stroke="rgba(188, 242, 246, 1)" stroke-width="1.5"></path><path d="M85.2 646.85L209.23 674.96" stroke="rgba(188, 242, 246, 1)" stroke-width="1.5"></path><path d="M85.2 646.85L213.06 535.02" stroke="rgba(188, 242, 246, 1)" stroke-width="1.5"></path><path d="M189.65 387.17L189.65 387.17" stroke="rgba(188, 242, 246, 1)" stroke-width="1.5"></path><path d="M189.65 387.17L213.06 535.02" stroke="rgba(188, 242, 246, 1)" stroke-width="1.5"></path><path d="M189.65 387.17L56.22 544.14" stroke="rgba(188, 242, 246, 1)" stroke-width="1.5"></path><path d="M189.65 387.17L399.62 346.78" stroke="rgba(188, 242, 246, 1)" stroke-width="1.5"></path><path d="M213.06 535.02L213.06 535.02" stroke="rgba(188, 242, 246, 1)" stroke-width="1.5"></path><path d="M213.06 535.02L209.23 674.96" stroke="rgba(188, 242, 246, 1)" stroke-width="1.5"></path><path d="M209.23 674.96L209.23 674.96" stroke="rgba(188, 242, 246, 1)" stroke-width="1.5"></path><path d="M399.62 346.78L399.62 346.78" stroke="rgba(188, 242, 246, 1)" stroke-width="1.5"></path><path d="M399.62 346.78L555.85 389.67" stroke="rgba(188, 242, 246, 1)" stroke-width="1.5"></path><path d="M399.62 346.78L372.83 529.03" stroke="rgba(188, 242, 246, 1)" stroke-width="1.5"></path><path d="M372.83 529.03L372.83 529.03" stroke="rgba(188, 242, 246, 1)" stroke-width="1.5"></path><path d="M372.83 529.03L383.54 648.53" stroke="rgba(188, 242, 246, 1)" stroke-width="1.5"></path><path d="M372.83 529.03L213.06 535.02" stroke="rgba(188, 242, 246, 1)" stroke-width="1.5"></path><path d="M372.83 529.03L541.16 509.72" stroke="rgba(188, 242, 246, 1)" stroke-width="1.5"></path><path d="M372.83 529.03L209.23 674.96" stroke="rgba(188, 242, 246, 1)" stroke-width="1.5"></path><path d="M383.54 648.53L383.54 648.53" stroke="rgba(188, 242, 246, 1)" stroke-width="1.5"></path><path d="M383.54 648.53L539.06 677.86" stroke="rgba(188, 242, 246, 1)" stroke-width="1.5"></path><path d="M383.54 648.53L209.23 674.96" stroke="rgba(188, 242, 246, 1)" stroke-width="1.5"></path><path d="M555.85 389.67L555.85 389.67" stroke="rgba(188, 242, 246, 1)" stroke-width="1.5"></path><path d="M555.85 389.67L541.16 509.72" stroke="rgba(188, 242, 246, 1)" stroke-width="1.5"></path><path d="M555.85 389.67L699.11 402.13" stroke="rgba(188, 242, 246, 1)" stroke-width="1.5"></path><path d="M541.16 509.72L541.16 509.72" stroke="rgba(188, 242, 246, 1)" stroke-width="1.5"></path><path d="M541.16 509.72L658.88 545.14" stroke="rgba(188, 242, 246, 1)" stroke-width="1.5"></path><path d="M541.16 509.72L539.06 677.86" stroke="rgba(188, 242, 246, 1)" stroke-width="1.5"></path><path d="M539.06 677.86L539.06 677.86" stroke="rgba(188, 242, 246, 1)" stroke-width="1.5"></path><path d="M539.06 677.86L688.59 676.18" stroke="rgba(188, 242, 246, 1)" stroke-width="1.5"></path><path d="M539.06 677.86L658.88 545.14" stroke="rgba(188, 242, 246, 1)" stroke-width="1.5"></path><path d="M539.06 677.86L372.83 529.03" stroke="rgba(188, 242, 246, 1)" stroke-width="1.5"></path><path d="M539.06 677.86L800.72 705.44" stroke="rgba(188, 242, 246, 1)" stroke-width="1.5"></path><path d="M689.75 229.17L689.75 229.17" stroke="rgba(188, 242, 246, 1)" stroke-width="1.5"></path><path d="M689.75 229.17L792.56 257.18" stroke="rgba(188, 242, 246, 1)" stroke-width="1.5"></path><path d="M689.75 229.17L699.11 402.13" stroke="rgba(188, 242, 246, 1)" stroke-width="1.5"></path><path d="M689.75 229.17L853.12 351.67" stroke="rgba(188, 242, 246, 1)" stroke-width="1.5"></path><path d="M689.75 229.17L555.85 389.67" stroke="rgba(188, 242, 246, 1)" stroke-width="1.5"></path><path d="M699.11 402.13L699.11 402.13" stroke="rgba(188, 242, 246, 1)" stroke-width="1.5"></path><path d="M699.11 402.13L658.88 545.14" stroke="rgba(188, 242, 246, 1)" stroke-width="1.5"></path><path d="M699.11 402.13L853.12 351.67" stroke="rgba(188, 242, 246, 1)" stroke-width="1.5"></path><path d="M658.88 545.14L658.88 545.14" stroke="rgba(188, 242, 246, 1)" stroke-width="1.5"></path><path d="M658.88 545.14L688.59 676.18" stroke="rgba(188, 242, 246, 1)" stroke-width="1.5"></path><path d="M688.59 676.18L688.59 676.18" stroke="rgba(188, 242, 246, 1)" stroke-width="1.5"></path><path d="M688.59 676.18L800.72 705.44" stroke="rgba(188, 242, 246, 1)" stroke-width="1.5"></path><path d="M847.67 73.15L847.67 73.15" stroke="rgba(188, 242, 246, 1)" stroke-width="1.5"></path><path d="M847.67 73.15L996.74 104.94" stroke="rgba(188, 242, 246, 1)" stroke-width="1.5"></path><path d="M847.67 73.15L944.6 -83.24" stroke="rgba(188, 242, 246, 1)" stroke-width="1.5"></path><path d="M847.67 73.15L792.56 257.18" stroke="rgba(188, 242, 246, 1)" stroke-width="1.5"></path><path d="M847.67 73.15L1004.11 229.16" stroke="rgba(188, 242, 246, 1)" stroke-width="1.5"></path><path d="M792.56 257.18L792.56 257.18" stroke="rgba(188, 242, 246, 1)" stroke-width="1.5"></path><path d="M792.56 257.18L853.12 351.67" stroke="rgba(188, 242, 246, 1)" stroke-width="1.5"></path><path d="M792.56 257.18L699.11 402.13" stroke="rgba(188, 242, 246, 1)" stroke-width="1.5"></path><path d="M853.12 351.67L853.12 351.67" stroke="rgba(188, 242, 246, 1)" stroke-width="1.5"></path><path d="M853.12 351.67L1011.08 412.23" stroke="rgba(188, 242, 246, 1)" stroke-width="1.5"></path><path d="M860.13 521.51L860.13 521.51" stroke="rgba(188, 242, 246, 1)" stroke-width="1.5"></path><path d="M860.13 521.51L1001.93 536.84" stroke="rgba(188, 242, 246, 1)" stroke-width="1.5"></path><path d="M860.13 521.51L853.12 351.67" stroke="rgba(188, 242, 246, 1)" stroke-width="1.5"></path><path d="M860.13 521.51L1011.08 412.23" stroke="rgba(188, 242, 246, 1)" stroke-width="1.5"></path><path d="M800.72 705.44L800.72 705.44" stroke="rgba(188, 242, 246, 1)" stroke-width="1.5"></path><path d="M800.72 705.44L975.93 684.27" stroke="rgba(188, 242, 246, 1)" stroke-width="1.5"></path><path d="M800.72 705.44L860.13 521.51" stroke="rgba(188, 242, 246, 1)" stroke-width="1.5"></path><path d="M944.6 -83.24L944.6 -83.24" stroke="rgba(188, 242, 246, 1)" stroke-width="1.5"></path><path d="M944.6 -83.24L1134.6 -61.49" stroke="rgba(188, 242, 246, 1)" stroke-width="1.5"></path><path d="M944.6 -83.24L996.74 104.94" stroke="rgba(188, 242, 246, 1)" stroke-width="1.5"></path><path d="M944.6 -83.24L1143.29 107.11" stroke="rgba(188, 242, 246, 1)" stroke-width="1.5"></path><path d="M944.6 -83.24L1004.11 229.16" stroke="rgba(188, 242, 246, 1)" stroke-width="1.5"></path><path d="M996.74 104.94L996.74 104.94" stroke="rgba(188, 242, 246, 1)" stroke-width="1.5"></path><path d="M996.74 104.94L1004.11 229.16" stroke="rgba(188, 242, 246, 1)" stroke-width="1.5"></path><path d="M996.74 104.94L1143.29 107.11" stroke="rgba(188, 242, 246, 1)" stroke-width="1.5"></path><path d="M1004.11 229.16L1004.11 229.16" stroke="rgba(188, 242, 246, 1)" stroke-width="1.5"></path><path d="M1004.11 229.16L1158.05 202.78" stroke="rgba(188, 242, 246, 1)" stroke-width="1.5"></path><path d="M1004.11 229.16L1011.08 412.23" stroke="rgba(188, 242, 246, 1)" stroke-width="1.5"></path><path d="M1004.11 229.16L1143.29 107.11" stroke="rgba(188, 242, 246, 1)" stroke-width="1.5"></path><path d="M1011.08 412.23L1011.08 412.23" stroke="rgba(188, 242, 246, 1)" stroke-width="1.5"></path><path d="M1011.08 412.23L1104.7 392.56" stroke="rgba(188, 242, 246, 1)" stroke-width="1.5"></path><path d="M1011.08 412.23L1001.93 536.84" stroke="rgba(188, 242, 246, 1)" stroke-width="1.5"></path><path d="M1011.08 412.23L1124.61 555.04" stroke="rgba(188, 242, 246, 1)" stroke-width="1.5"></path><path d="M1001.93 536.84L1001.93 536.84" stroke="rgba(188, 242, 246, 1)" stroke-width="1.5"></path><path d="M1001.93 536.84L1124.61 555.04" stroke="rgba(188, 242, 246, 1)" stroke-width="1.5"></path><path d="M975.93 684.27L975.93 684.27" stroke="rgba(188, 242, 246, 1)" stroke-width="1.5"></path><path d="M975.93 684.27L1001.93 536.84" stroke="rgba(188, 242, 246, 1)" stroke-width="1.5"></path><path d="M975.93 684.27L1151.2 695.85" stroke="rgba(188, 242, 246, 1)" stroke-width="1.5"></path><path d="M975.93 684.27L1124.61 555.04" stroke="rgba(188, 242, 246, 1)" stroke-width="1.5"></path><path d="M1134.6 -61.49L1134.6 -61.49" stroke="rgba(188, 242, 246, 1)" stroke-width="1.5"></path><path d="M1134.6 -61.49L1143.29 107.11" stroke="rgba(188, 242, 246, 1)" stroke-width="1.5"></path><path d="M1134.6 -61.49L1241.12 82.48" stroke="rgba(188, 242, 246, 1)" stroke-width="1.5"></path><path d="M1134.6 -61.49L996.74 104.94" stroke="rgba(188, 242, 246, 1)" stroke-width="1.5"></path><path d="M1134.6 -61.49L1158.05 202.78" stroke="rgba(188, 242, 246, 1)" stroke-width="1.5"></path><path d="M1143.29 107.11L1143.29 107.11" stroke="rgba(188, 242, 246, 1)" stroke-width="1.5"></path><path d="M1143.29 107.11L1158.05 202.78" stroke="rgba(188, 242, 246, 1)" stroke-width="1.5"></path><path d="M1143.29 107.11L1241.12 82.48" stroke="rgba(188, 242, 246, 1)" stroke-width="1.5"></path><path d="M1158.05 202.78L1158.05 202.78" stroke="rgba(188, 242, 246, 1)" stroke-width="1.5"></path><path d="M1158.05 202.78L1241.12 82.48" stroke="rgba(188, 242, 246, 1)" stroke-width="1.5"></path><path d="M1158.05 202.78L1269.14 348.55" stroke="rgba(188, 242, 246, 1)" stroke-width="1.5"></path><path d="M1104.7 392.56L1104.7 392.56" stroke="rgba(188, 242, 246, 1)" stroke-width="1.5"></path><path d="M1124.61 555.04L1124.61 555.04" stroke="rgba(188, 242, 246, 1)" stroke-width="1.5"></path><path d="M1124.61 555.04L1151.2 695.85" stroke="rgba(188, 242, 246, 1)" stroke-width="1.5"></path><path d="M1151.2 695.85L1151.2 695.85" stroke="rgba(188, 242, 246, 1)" stroke-width="1.5"></path><path d="M1151.2 695.85L1312.14 658.22" stroke="rgba(188, 242, 246, 1)" stroke-width="1.5"></path><path d="M1241.12 82.48L1241.12 82.48" stroke="rgba(188, 242, 246, 1)" stroke-width="1.5"></path><path d="M1269.14 348.55L1269.14 348.55" stroke="rgba(188, 242, 246, 1)" stroke-width="1.5"></path><path d="M1269.14 348.55L1286.7 492.85" stroke="rgba(188, 242, 246, 1)" stroke-width="1.5"></path><path d="M1269.14 348.55L1428.02 360.42" stroke="rgba(188, 242, 246, 1)" stroke-width="1.5"></path><path d="M1269.14 348.55L1104.7 392.56" stroke="rgba(188, 242, 246, 1)" stroke-width="1.5"></path><path d="M1269.14 348.55L1402.54 505.21" stroke="rgba(188, 242, 246, 1)" stroke-width="1.5"></path><path d="M1269.14 348.55L1432.56 222.34" stroke="rgba(188, 242, 246, 1)" stroke-width="1.5"></path><path d="M1286.7 492.85L1286.7 492.85" stroke="rgba(188, 242, 246, 1)" stroke-width="1.5"></path><path d="M1286.7 492.85L1402.54 505.21" stroke="rgba(188, 242, 246, 1)" stroke-width="1.5"></path><path d="M1286.7 492.85L1312.14 658.22" stroke="rgba(188, 242, 246, 1)" stroke-width="1.5"></path><path d="M1286.7 492.85L1124.61 555.04" stroke="rgba(188, 242, 246, 1)" stroke-width="1.5"></path><path d="M1286.7 492.85L1428.02 360.42" stroke="rgba(188, 242, 246, 1)" stroke-width="1.5"></path><path d="M1312.14 658.22L1312.14 658.22" stroke="rgba(188, 242, 246, 1)" stroke-width="1.5"></path><path d="M1312.14 658.22L1454.76 669.59" stroke="rgba(188, 242, 246, 1)" stroke-width="1.5"></path><path d="M1399.63 -110.45L1399.63 -110.45" stroke="rgba(188, 242, 246, 1)" stroke-width="1.5"></path><path d="M1399.63 -110.45L1545.1 -95.5" stroke="rgba(188, 242, 246, 1)" stroke-width="1.5"></path><path d="M1399.63 -110.45L1448 37.93" stroke="rgba(188, 242, 246, 1)" stroke-width="1.5"></path><path d="M1448 37.93L1448 37.93" stroke="rgba(188, 242, 246, 1)" stroke-width="1.5"></path><path d="M1448 37.93L1545.1 -95.5" stroke="rgba(188, 242, 246, 1)" stroke-width="1.5"></path><path d="M1448 37.93L1432.56 222.34" stroke="rgba(188, 242, 246, 1)" stroke-width="1.5"></path><path d="M1448 37.93L1562.93 194.11" stroke="rgba(188, 242, 246, 1)" stroke-width="1.5"></path><path d="M1432.56 222.34L1432.56 222.34" stroke="rgba(188, 242, 246, 1)" stroke-width="1.5"></path><path d="M1432.56 222.34L1562.93 194.11" stroke="rgba(188, 242, 246, 1)" stroke-width="1.5"></path><path d="M1432.56 222.34L1428.02 360.42" stroke="rgba(188, 242, 246, 1)" stroke-width="1.5"></path><path d="M1428.02 360.42L1428.02 360.42" stroke="rgba(188, 242, 246, 1)" stroke-width="1.5"></path><path d="M1428.02 360.42L1402.54 505.21" stroke="rgba(188, 242, 246, 1)" stroke-width="1.5"></path><path d="M1402.54 505.21L1402.54 505.21" stroke="rgba(188, 242, 246, 1)" stroke-width="1.5"></path><path d="M1402.54 505.21L1454.76 669.59" stroke="rgba(188, 242, 246, 1)" stroke-width="1.5"></path><path d="M1402.54 505.21L1312.14 658.22" stroke="rgba(188, 242, 246, 1)" stroke-width="1.5"></path><path d="M1454.76 669.59L1454.76 669.59" stroke="rgba(188, 242, 246, 1)" stroke-width="1.5"></path><path d="M1454.76 669.59L1586.16 661.68" stroke="rgba(188, 242, 246, 1)" stroke-width="1.5"></path><path d="M1454.76 669.59L1607.16 527.11" stroke="rgba(188, 242, 246, 1)" stroke-width="1.5"></path><path d="M1545.1 -95.5L1545.1 -95.5" stroke="rgba(188, 242, 246, 1)" stroke-width="1.5"></path><path d="M1562.93 194.11L1562.93 194.11" stroke="rgba(188, 242, 246, 1)" stroke-width="1.5"></path><path d="M1562.93 194.11L1428.02 360.42" stroke="rgba(188, 242, 246, 1)" stroke-width="1.5"></path><path d="M1607.16 527.11L1607.16 527.11" stroke="rgba(188, 242, 246, 1)" stroke-width="1.5"></path><path d="M1607.16 527.11L1586.16 661.68" stroke="rgba(188, 242, 246, 1)" stroke-width="1.5"></path><path d="M1607.16 527.11L1402.54 505.21" stroke="rgba(188, 242, 246, 1)" stroke-width="1.5"></path><path d="M1607.16 527.11L1428.02 360.42" stroke="rgba(188, 242, 246, 1)" stroke-width="1.5"></path><path d="M1607.16 527.11L1286.7 492.85" stroke="rgba(188, 242, 246, 1)" stroke-width="1.5"></path><path d="M1586.16 661.68L1586.16 661.68" stroke="rgba(188, 242, 246, 1)" stroke-width="1.5"></path><circle r="5" cx="-57.95" cy="338.09" fill="rgba(188, 242, 246, 1)"></circle><circle r="5" cx="-40.71" cy="515.08" fill="rgba(188, 242, 246, 1)"></circle><circle r="5" cx="-60.79" cy="674.6" fill="rgba(188, 242, 246, 1)"></circle><circle r="5" cx="75.04" cy="396.95" fill="rgba(188, 242, 246, 1)"></circle><circle r="5" cx="56.22" cy="544.14" fill="rgba(188, 242, 246, 1)"></circle><circle r="5" cx="85.2" cy="646.85" fill="rgba(188, 242, 246, 1)"></circle><circle r="5" cx="189.65" cy="387.17" fill="rgba(188, 242, 246, 1)"></circle><circle r="5" cx="213.06" cy="535.02" fill="rgba(188, 242, 246, 1)"></circle><circle r="5" cx="209.23" cy="674.96" fill="rgba(188, 242, 246, 1)"></circle><circle r="5" cx="399.62" cy="346.78" fill="rgba(188, 242, 246, 1)"></circle><circle r="5" cx="372.83" cy="529.03" fill="rgba(188, 242, 246, 1)"></circle><circle r="5" cx="383.54" cy="648.53" fill="rgba(188, 242, 246, 1)"></circle><circle r="5" cx="555.85" cy="389.67" fill="rgba(188, 242, 246, 1)"></circle><circle r="5" cx="541.16" cy="509.72" fill="rgba(188, 242, 246, 1)"></circle><circle r="5" cx="539.06" cy="677.86" fill="rgba(188, 242, 246, 1)"></circle><circle r="5" cx="689.75" cy="229.17" fill="rgba(188, 242, 246, 1)"></circle><circle r="5" cx="699.11" cy="402.13" fill="rgba(188, 242, 246, 1)"></circle><circle r="5" cx="658.88" cy="545.14" fill="rgba(188, 242, 246, 1)"></circle><circle r="5" cx="688.59" cy="676.18" fill="rgba(188, 242, 246, 1)"></circle><circle r="5" cx="847.67" cy="73.15" fill="rgba(188, 242, 246, 1)"></circle><circle r="5" cx="792.56" cy="257.18" fill="rgba(188, 242, 246, 1)"></circle><circle r="5" cx="853.12" cy="351.67" fill="rgba(188, 242, 246, 1)"></circle><circle r="5" cx="860.13" cy="521.51" fill="rgba(188, 242, 246, 1)"></circle><circle r="5" cx="800.72" cy="705.44" fill="rgba(188, 242, 246, 1)"></circle><circle r="5" cx="944.6" cy="-83.24" fill="rgba(188, 242, 246, 1)"></circle><circle r="5" cx="996.74" cy="104.94" fill="rgba(188, 242, 246, 1)"></circle><circle r="5" cx="1004.11" cy="229.16" fill="rgba(188, 242, 246, 1)"></circle><circle r="5" cx="1011.08" cy="412.23" fill="rgba(188, 242, 246, 1)"></circle><circle r="5" cx="1001.93" cy="536.84" fill="rgba(188, 242, 246, 1)"></circle><circle r="5" cx="975.93" cy="684.27" fill="rgba(188, 242, 246, 1)"></circle><circle r="5" cx="1134.6" cy="-61.49" fill="rgba(188, 242, 246, 1)"></circle><circle r="5" cx="1143.29" cy="107.11" fill="rgba(188, 242, 246, 1)"></circle><circle r="5" cx="1158.05" cy="202.78" fill="rgba(188, 242, 246, 1)"></circle><circle r="5" cx="1104.7" cy="392.56" fill="rgba(188, 242, 246, 1)"></circle><circle r="5" cx="1124.61" cy="555.04" fill="rgba(188, 242, 246, 1)"></circle><circle r="5" cx="1151.2" cy="695.85" fill="rgba(188, 242, 246, 1)"></circle><circle r="5" cx="1241.12" cy="82.48" fill="rgba(188, 242, 246, 1)"></circle><circle r="5" cx="1269.14" cy="348.55" fill="rgba(188, 242, 246, 1)"></circle><circle r="5" cx="1286.7" cy="492.85" fill="rgba(188, 242, 246, 1)"></circle><circle r="5" cx="1312.14" cy="658.22" fill="rgba(188, 242, 246, 1)"></circle><circle r="5" cx="1399.63" cy="-110.45" fill="rgba(188, 242, 246, 1)"></circle><circle r="5" cx="1448" cy="37.93" fill="rgba(188, 242, 246, 1)"></circle><circle r="5" cx="1432.56" cy="222.34" fill="rgba(188, 242, 246, 1)"></circle><circle r="5" cx="1428.02" cy="360.42" fill="rgba(188, 242, 246, 1)"></circle><circle r="5" cx="1402.54" cy="505.21" fill="rgba(188, 242, 246, 1)"></circle><circle r="5" cx="1454.76" cy="669.59" fill="rgba(188, 242, 246, 1)"></circle><circle r="5" cx="1545.1" cy="-95.5" fill="rgba(188, 242, 246, 1)"></circle><circle r="5" cx="1562.93" cy="194.11" fill="rgba(188, 242, 246, 1)"></circle><circle r="5" cx="1607.16" cy="527.11" fill="rgba(188, 242, 246, 1)"></circle><circle r="5" cx="1586.16" cy="661.68" fill="rgba(188, 242, 246, 1)"></circle><path d="M-39.4 560.83L-39.4 560.83" stroke="hsl(194.89999999999998, 100%, 67.5%)" stroke-width="1.5"></path><path d="M-39.4 560.83L-90.84 638.72" stroke="hsl(194.89999999999998, 100%, 67.5%)" stroke-width="1.5"></path><path d="M-39.4 560.83L71.31 513.97" stroke="hsl(194.89999999999998, 100%, 67.5%)" stroke-width="1.5"></path><path d="M-39.4 560.83L67.49 704.84" stroke="hsl(194.89999999999998, 100%, 67.5%)" stroke-width="1.5"></path><path d="M-39.4 560.83L252.52 503.15" stroke="hsl(194.89999999999998, 100%, 67.5%)" stroke-width="1.5"></path><path d="M-39.4 560.83L245.16 711.26" stroke="hsl(194.89999999999998, 100%, 67.5%)" stroke-width="1.5"></path><path d="M-39.4 560.83L358.17 542.24" stroke="hsl(194.89999999999998, 100%, 67.5%)" stroke-width="1.5"></path><path d="M-90.84 638.72L-90.84 638.72" stroke="hsl(194.89999999999998, 100%, 67.5%)" stroke-width="1.5"></path><path d="M-90.84 638.72L67.49 704.84" stroke="hsl(194.89999999999998, 100%, 67.5%)" stroke-width="1.5"></path><path d="M-90.84 638.72L71.31 513.97" stroke="hsl(194.89999999999998, 100%, 67.5%)" stroke-width="1.5"></path><path d="M-90.84 638.72L245.16 711.26" stroke="hsl(194.89999999999998, 100%, 67.5%)" stroke-width="1.5"></path><path d="M-90.84 638.72L252.52 503.15" stroke="hsl(194.89999999999998, 100%, 67.5%)" stroke-width="1.5"></path><path d="M-90.84 638.72L358.46 652.64" stroke="hsl(194.89999999999998, 100%, 67.5%)" stroke-width="1.5"></path><path d="M252.52 503.15L252.52 503.15" stroke="hsl(194.89999999999998, 100%, 67.5%)" stroke-width="1.5"></path><path d="M252.52 503.15L358.17 542.24" stroke="hsl(194.89999999999998, 100%, 67.5%)" stroke-width="1.5"></path><path d="M252.52 503.15L71.31 513.97" stroke="hsl(194.89999999999998, 100%, 67.5%)" stroke-width="1.5"></path><path d="M252.52 503.15L358.46 652.64" stroke="hsl(194.89999999999998, 100%, 67.5%)" stroke-width="1.5"></path><path d="M245.16 711.26L245.16 711.26" stroke="hsl(194.89999999999998, 100%, 67.5%)" stroke-width="1.5"></path><path d="M245.16 711.26L358.46 652.64" stroke="hsl(194.89999999999998, 100%, 67.5%)" stroke-width="1.5"></path><path d="M245.16 711.26L67.49 704.84" stroke="hsl(194.89999999999998, 100%, 67.5%)" stroke-width="1.5"></path><path d="M245.16 711.26L358.17 542.24" stroke="hsl(194.89999999999998, 100%, 67.5%)" stroke-width="1.5"></path><path d="M245.16 711.26L252.52 503.15" stroke="hsl(194.89999999999998, 100%, 67.5%)" stroke-width="1.5"></path><path d="M358.46 652.64L358.46 652.64" stroke="hsl(194.89999999999998, 100%, 67.5%)" stroke-width="1.5"></path><path d="M358.46 652.64L358.17 542.24" stroke="hsl(194.89999999999998, 100%, 67.5%)" stroke-width="1.5"></path><path d="M358.46 652.64L511.78 671.56" stroke="hsl(194.89999999999998, 100%, 67.5%)" stroke-width="1.5"></path><path d="M511.78 671.56L511.78 671.56" stroke="hsl(194.89999999999998, 100%, 67.5%)" stroke-width="1.5"></path><path d="M511.78 671.56L678.87 678.54" stroke="hsl(194.89999999999998, 100%, 67.5%)" stroke-width="1.5"></path><path d="M511.78 671.56L493.34 504.22" stroke="hsl(194.89999999999998, 100%, 67.5%)" stroke-width="1.5"></path><path d="M642.29 529.02L642.29 529.02" stroke="hsl(194.89999999999998, 100%, 67.5%)" stroke-width="1.5"></path><path d="M642.29 529.02L493.34 504.22" stroke="hsl(194.89999999999998, 100%, 67.5%)" stroke-width="1.5"></path><path d="M642.29 529.02L678.87 678.54" stroke="hsl(194.89999999999998, 100%, 67.5%)" stroke-width="1.5"></path><path d="M642.29 529.02L549.98 397.78" stroke="hsl(194.89999999999998, 100%, 67.5%)" stroke-width="1.5"></path><path d="M642.29 529.02L511.78 671.56" stroke="hsl(194.89999999999998, 100%, 67.5%)" stroke-width="1.5"></path><path d="M642.29 529.02L790.38 396.15" stroke="hsl(194.89999999999998, 100%, 67.5%)" stroke-width="1.5"></path><path d="M1098.45 365.29L1098.45 365.29" stroke="hsl(194.89999999999998, 100%, 67.5%)" stroke-width="1.5"></path><path d="M1098.45 365.29L1142.87 234.67" stroke="hsl(194.89999999999998, 100%, 67.5%)" stroke-width="1.5"></path><path d="M1098.45 365.29L1006.45 543.53" stroke="hsl(194.89999999999998, 100%, 67.5%)" stroke-width="1.5"></path><path d="M1098.45 365.29L1311.19 393.11" stroke="hsl(194.89999999999998, 100%, 67.5%)" stroke-width="1.5"></path><path d="M1127.54 658.97L1127.54 658.97" stroke="hsl(194.89999999999998, 100%, 67.5%)" stroke-width="1.5"></path><path d="M1127.54 658.97L1008.98 675.63" stroke="hsl(194.89999999999998, 100%, 67.5%)" stroke-width="1.5"></path><path d="M1127.54 658.97L1239.65 558.58" stroke="hsl(194.89999999999998, 100%, 67.5%)" stroke-width="1.5"></path><path d="M1127.54 658.97L1006.45 543.53" stroke="hsl(194.89999999999998, 100%, 67.5%)" stroke-width="1.5"></path><path d="M1127.54 658.97L1395.65 545.48" stroke="hsl(194.89999999999998, 100%, 67.5%)" stroke-width="1.5"></path><path d="M1261.96 47.39L1261.96 47.39" stroke="hsl(194.89999999999998, 100%, 67.5%)" stroke-width="1.5"></path><path d="M1261.96 47.39L1277.75 -45.27" stroke="hsl(194.89999999999998, 100%, 67.5%)" stroke-width="1.5"></path><path d="M1261.96 47.39L1145.95 88.62" stroke="hsl(194.89999999999998, 100%, 67.5%)" stroke-width="1.5"></path><path d="M1261.96 47.39L1402.96 108.71" stroke="hsl(194.89999999999998, 100%, 67.5%)" stroke-width="1.5"></path><path d="M1458.94 673.81L1458.94 673.81" stroke="hsl(194.89999999999998, 100%, 67.5%)" stroke-width="1.5"></path><path d="M1458.94 673.81L1538.56 690.4" stroke="hsl(194.89999999999998, 100%, 67.5%)" stroke-width="1.5"></path><path d="M1458.94 673.81L1395.65 545.48" stroke="hsl(194.89999999999998, 100%, 67.5%)" stroke-width="1.5"></path><path d="M1606.21 217.6L1606.21 217.6" stroke="hsl(194.89999999999998, 100%, 67.5%)" stroke-width="1.5"></path><path d="M1606.21 217.6L1578.85 89.46" stroke="hsl(194.89999999999998, 100%, 67.5%)" stroke-width="1.5"></path><path d="M1606.21 217.6L1430.74 249.77" stroke="hsl(194.89999999999998, 100%, 67.5%)" stroke-width="1.5"></path><path d="M1606.21 217.6L1402.96 108.71" stroke="hsl(194.89999999999998, 100%, 67.5%)" stroke-width="1.5"></path><path d="M1606.21 217.6L1390.81 355.07" stroke="hsl(194.89999999999998, 100%, 67.5%)" stroke-width="1.5"></path><path d="M1606.21 217.6L1611.53 520.96" stroke="hsl(194.89999999999998, 100%, 67.5%)" stroke-width="1.5"></path><path d="M71.31 513.97L71.31 513.97" stroke="hsl(194.89999999999998, 100%, 67.5%)" stroke-width="1.5"></path><path d="M67.49 704.84L67.49 704.84" stroke="hsl(194.89999999999998, 100%, 67.5%)" stroke-width="1.5"></path><path d="M358.17 542.24L358.17 542.24" stroke="hsl(194.89999999999998, 100%, 67.5%)" stroke-width="1.5"></path><path d="M358.17 542.24L493.34 504.22" stroke="hsl(194.89999999999998, 100%, 67.5%)" stroke-width="1.5"></path><path d="M358.17 542.24L511.78 671.56" stroke="hsl(194.89999999999998, 100%, 67.5%)" stroke-width="1.5"></path><path d="M549.98 397.78L549.98 397.78" stroke="hsl(194.89999999999998, 100%, 67.5%)" stroke-width="1.5"></path><path d="M549.98 397.78L493.34 504.22" stroke="hsl(194.89999999999998, 100%, 67.5%)" stroke-width="1.5"></path><path d="M549.98 397.78L358.17 542.24" stroke="hsl(194.89999999999998, 100%, 67.5%)" stroke-width="1.5"></path><path d="M549.98 397.78L790.38 396.15" stroke="hsl(194.89999999999998, 100%, 67.5%)" stroke-width="1.5"></path><path d="M493.34 504.22L493.34 504.22" stroke="hsl(194.89999999999998, 100%, 67.5%)" stroke-width="1.5"></path><path d="M678.87 678.54L678.87 678.54" stroke="hsl(194.89999999999998, 100%, 67.5%)" stroke-width="1.5"></path><path d="M678.87 678.54L811.67 645.53" stroke="hsl(194.89999999999998, 100%, 67.5%)" stroke-width="1.5"></path><path d="M790.38 396.15L790.38 396.15" stroke="hsl(194.89999999999998, 100%, 67.5%)" stroke-width="1.5"></path><path d="M790.38 396.15L851.43 556.8" stroke="hsl(194.89999999999998, 100%, 67.5%)" stroke-width="1.5"></path><path d="M851.43 556.8L851.43 556.8" stroke="hsl(194.89999999999998, 100%, 67.5%)" stroke-width="1.5"></path><path d="M851.43 556.8L811.67 645.53" stroke="hsl(194.89999999999998, 100%, 67.5%)" stroke-width="1.5"></path><path d="M851.43 556.8L1006.45 543.53" stroke="hsl(194.89999999999998, 100%, 67.5%)" stroke-width="1.5"></path><path d="M851.43 556.8L1008.98 675.63" stroke="hsl(194.89999999999998, 100%, 67.5%)" stroke-width="1.5"></path><path d="M811.67 645.53L811.67 645.53" stroke="hsl(194.89999999999998, 100%, 67.5%)" stroke-width="1.5"></path><path d="M811.67 645.53L1008.98 675.63" stroke="hsl(194.89999999999998, 100%, 67.5%)" stroke-width="1.5"></path><path d="M811.67 645.53L642.29 529.02" stroke="hsl(194.89999999999998, 100%, 67.5%)" stroke-width="1.5"></path><path d="M811.67 645.53L1006.45 543.53" stroke="hsl(194.89999999999998, 100%, 67.5%)" stroke-width="1.5"></path><path d="M811.67 645.53L790.38 396.15" stroke="hsl(194.89999999999998, 100%, 67.5%)" stroke-width="1.5"></path><path d="M1006.45 543.53L1006.45 543.53" stroke="hsl(194.89999999999998, 100%, 67.5%)" stroke-width="1.5"></path><path d="M1006.45 543.53L1008.98 675.63" stroke="hsl(194.89999999999998, 100%, 67.5%)" stroke-width="1.5"></path><path d="M1006.45 543.53L1239.65 558.58" stroke="hsl(194.89999999999998, 100%, 67.5%)" stroke-width="1.5"></path><path d="M1008.98 675.63L1008.98 675.63" stroke="hsl(194.89999999999998, 100%, 67.5%)" stroke-width="1.5"></path><path d="M1008.98 675.63L1239.65 558.58" stroke="hsl(194.89999999999998, 100%, 67.5%)" stroke-width="1.5"></path><path d="M1145.95 88.62L1145.95 88.62" stroke="hsl(194.89999999999998, 100%, 67.5%)" stroke-width="1.5"></path><path d="M1145.95 88.62L1142.87 234.67" stroke="hsl(194.89999999999998, 100%, 67.5%)" stroke-width="1.5"></path><path d="M1142.87 234.67L1142.87 234.67" stroke="hsl(194.89999999999998, 100%, 67.5%)" stroke-width="1.5"></path><path d="M1142.87 234.67L1254.79 218.09" stroke="hsl(194.89999999999998, 100%, 67.5%)" stroke-width="1.5"></path><path d="M1142.87 234.67L1261.96 47.39" stroke="hsl(194.89999999999998, 100%, 67.5%)" stroke-width="1.5"></path><path d="M1142.87 234.67L1311.19 393.11" stroke="hsl(194.89999999999998, 100%, 67.5%)" stroke-width="1.5"></path><path d="M1277.75 -45.27L1277.75 -45.27" stroke="hsl(194.89999999999998, 100%, 67.5%)" stroke-width="1.5"></path><path d="M1277.75 -45.27L1393.96 -39.61" stroke="hsl(194.89999999999998, 100%, 67.5%)" stroke-width="1.5"></path><path d="M1277.75 -45.27L1145.95 88.62" stroke="hsl(194.89999999999998, 100%, 67.5%)" stroke-width="1.5"></path><path d="M1277.75 -45.27L1402.96 108.71" stroke="hsl(194.89999999999998, 100%, 67.5%)" stroke-width="1.5"></path><path d="M1277.75 -45.27L1254.79 218.09" stroke="hsl(194.89999999999998, 100%, 67.5%)" stroke-width="1.5"></path><path d="M1277.75 -45.27L1553.09 -103.97" stroke="hsl(194.89999999999998, 100%, 67.5%)" stroke-width="1.5"></path><path d="M1254.79 218.09L1254.79 218.09" stroke="hsl(194.89999999999998, 100%, 67.5%)" stroke-width="1.5"></path><path d="M1254.79 218.09L1145.95 88.62" stroke="hsl(194.89999999999998, 100%, 67.5%)" stroke-width="1.5"></path><path d="M1254.79 218.09L1261.96 47.39" stroke="hsl(194.89999999999998, 100%, 67.5%)" stroke-width="1.5"></path><path d="M1311.19 393.11L1311.19 393.11" stroke="hsl(194.89999999999998, 100%, 67.5%)" stroke-width="1.5"></path><path d="M1311.19 393.11L1390.81 355.07" stroke="hsl(194.89999999999998, 100%, 67.5%)" stroke-width="1.5"></path><path d="M1311.19 393.11L1395.65 545.48" stroke="hsl(194.89999999999998, 100%, 67.5%)" stroke-width="1.5"></path><path d="M1311.19 393.11L1239.65 558.58" stroke="hsl(194.89999999999998, 100%, 67.5%)" stroke-width="1.5"></path><path d="M1311.19 393.11L1254.79 218.09" stroke="hsl(194.89999999999998, 100%, 67.5%)" stroke-width="1.5"></path><path d="M1311.19 393.11L1430.74 249.77" stroke="hsl(194.89999999999998, 100%, 67.5%)" stroke-width="1.5"></path><path d="M1239.65 558.58L1239.65 558.58" stroke="hsl(194.89999999999998, 100%, 67.5%)" stroke-width="1.5"></path><path d="M1239.65 558.58L1395.65 545.48" stroke="hsl(194.89999999999998, 100%, 67.5%)" stroke-width="1.5"></path><path d="M1239.65 558.58L1098.45 365.29" stroke="hsl(194.89999999999998, 100%, 67.5%)" stroke-width="1.5"></path><path d="M1239.65 558.58L1458.94 673.81" stroke="hsl(194.89999999999998, 100%, 67.5%)" stroke-width="1.5"></path><path d="M1393.96 -39.61L1393.96 -39.61" stroke="hsl(194.89999999999998, 100%, 67.5%)" stroke-width="1.5"></path><path d="M1393.96 -39.61L1402.96 108.71" stroke="hsl(194.89999999999998, 100%, 67.5%)" stroke-width="1.5"></path><path d="M1393.96 -39.61L1261.96 47.39" stroke="hsl(194.89999999999998, 100%, 67.5%)" stroke-width="1.5"></path><path d="M1393.96 -39.61L1553.09 -103.97" stroke="hsl(194.89999999999998, 100%, 67.5%)" stroke-width="1.5"></path><path d="M1393.96 -39.61L1578.85 89.46" stroke="hsl(194.89999999999998, 100%, 67.5%)" stroke-width="1.5"></path><path d="M1402.96 108.71L1402.96 108.71" stroke="hsl(194.89999999999998, 100%, 67.5%)" stroke-width="1.5"></path><path d="M1402.96 108.71L1430.74 249.77" stroke="hsl(194.89999999999998, 100%, 67.5%)" stroke-width="1.5"></path><path d="M1402.96 108.71L1578.85 89.46" stroke="hsl(194.89999999999998, 100%, 67.5%)" stroke-width="1.5"></path><path d="M1430.74 249.77L1430.74 249.77" stroke="hsl(194.89999999999998, 100%, 67.5%)" stroke-width="1.5"></path><path d="M1430.74 249.77L1390.81 355.07" stroke="hsl(194.89999999999998, 100%, 67.5%)" stroke-width="1.5"></path><path d="M1430.74 249.77L1254.79 218.09" stroke="hsl(194.89999999999998, 100%, 67.5%)" stroke-width="1.5"></path><path d="M1390.81 355.07L1390.81 355.07" stroke="hsl(194.89999999999998, 100%, 67.5%)" stroke-width="1.5"></path><path d="M1390.81 355.07L1395.65 545.48" stroke="hsl(194.89999999999998, 100%, 67.5%)" stroke-width="1.5"></path><path d="M1395.65 545.48L1395.65 545.48" stroke="hsl(194.89999999999998, 100%, 67.5%)" stroke-width="1.5"></path><path d="M1395.65 545.48L1538.56 690.4" stroke="hsl(194.89999999999998, 100%, 67.5%)" stroke-width="1.5"></path><path d="M1553.09 -103.97L1553.09 -103.97" stroke="hsl(194.89999999999998, 100%, 67.5%)" stroke-width="1.5"></path><path d="M1553.09 -103.97L1578.85 89.46" stroke="hsl(194.89999999999998, 100%, 67.5%)" stroke-width="1.5"></path><path d="M1553.09 -103.97L1402.96 108.71" stroke="hsl(194.89999999999998, 100%, 67.5%)" stroke-width="1.5"></path><path d="M1553.09 -103.97L1606.21 217.6" stroke="hsl(194.89999999999998, 100%, 67.5%)" stroke-width="1.5"></path><path d="M1553.09 -103.97L1261.96 47.39" stroke="hsl(194.89999999999998, 100%, 67.5%)" stroke-width="1.5"></path><path d="M1578.85 89.46L1578.85 89.46" stroke="hsl(194.89999999999998, 100%, 67.5%)" stroke-width="1.5"></path><path d="M1578.85 89.46L1430.74 249.77" stroke="hsl(194.89999999999998, 100%, 67.5%)" stroke-width="1.5"></path><path d="M1611.53 520.96L1611.53 520.96" stroke="hsl(194.89999999999998, 100%, 67.5%)" stroke-width="1.5"></path><path d="M1611.53 520.96L1538.56 690.4" stroke="hsl(194.89999999999998, 100%, 67.5%)" stroke-width="1.5"></path><path d="M1611.53 520.96L1458.94 673.81" stroke="hsl(194.89999999999998, 100%, 67.5%)" stroke-width="1.5"></path><path d="M1538.56 690.4L1538.56 690.4" stroke="hsl(194.89999999999998, 100%, 67.5%)" stroke-width="1.5"></path><circle r="25" cx="-39.4" cy="560.83" fill="url(&quot;#SvgjsRadialGradient1005&quot;)"></circle><circle r="25" cx="-90.84" cy="638.72" fill="url(&quot;#SvgjsRadialGradient1005&quot;)"></circle><circle r="25" cx="252.52" cy="503.15" fill="url(&quot;#SvgjsRadialGradient1005&quot;)"></circle><circle r="25" cx="245.16" cy="711.26" fill="url(&quot;#SvgjsRadialGradient1005&quot;)"></circle><circle r="25" cx="358.46" cy="652.64" fill="url(&quot;#SvgjsRadialGradient1005&quot;)"></circle><circle r="25" cx="511.78" cy="671.56" fill="url(&quot;#SvgjsRadialGradient1005&quot;)"></circle><circle r="25" cx="642.29" cy="529.02" fill="url(&quot;#SvgjsRadialGradient1005&quot;)"></circle><circle r="25" cx="1098.45" cy="365.29" fill="url(&quot;#SvgjsRadialGradient1005&quot;)"></circle><circle r="25" cx="1127.54" cy="658.97" fill="url(&quot;#SvgjsRadialGradient1005&quot;)"></circle><circle r="25" cx="1261.96" cy="47.39" fill="url(&quot;#SvgjsRadialGradient1005&quot;)"></circle><circle r="25" cx="1458.94" cy="673.81" fill="url(&quot;#SvgjsRadialGradient1005&quot;)"></circle><circle r="25" cx="1606.21" cy="217.6" fill="url(&quot;#SvgjsRadialGradient1005&quot;)"></circle><circle r="5" cx="71.31" cy="513.97" fill="#85e1ff"></circle><circle r="5" cx="67.49" cy="704.84" fill="#85e1ff"></circle><circle r="5" cx="358.17" cy="542.24" fill="#85e1ff"></circle><circle r="5" cx="549.98" cy="397.78" fill="#85e1ff"></circle><circle r="5" cx="493.34" cy="504.22" fill="#85e1ff"></circle><circle r="5" cx="678.87" cy="678.54" fill="#85e1ff"></circle><circle r="5" cx="790.38" cy="396.15" fill="#85e1ff"></circle><circle r="5" cx="851.43" cy="556.8" fill="#85e1ff"></circle><circle r="5" cx="811.67" cy="645.53" fill="#85e1ff"></circle><circle r="5" cx="1006.45" cy="543.53" fill="#85e1ff"></circle><circle r="5" cx="1008.98" cy="675.63" fill="#85e1ff"></circle><circle r="5" cx="1145.95" cy="88.62" fill="#85e1ff"></circle><circle r="5" cx="1142.87" cy="234.67" fill="#85e1ff"></circle><circle r="5" cx="1277.75" cy="-45.27" fill="#85e1ff"></circle><circle r="5" cx="1254.79" cy="218.09" fill="#85e1ff"></circle><circle r="5" cx="1311.19" cy="393.11" fill="#85e1ff"></circle><circle r="5" cx="1239.65" cy="558.58" fill="#85e1ff"></circle><circle r="5" cx="1393.96" cy="-39.61" fill="#85e1ff"></circle><circle r="5" cx="1402.96" cy="108.71" fill="#85e1ff"></circle><circle r="5" cx="1430.74" cy="249.77" fill="#85e1ff"></circle><circle r="5" cx="1390.81" cy="355.07" fill="#85e1ff"></circle><circle r="5" cx="1395.65" cy="545.48" fill="#85e1ff"></circle><circle r="5" cx="1553.09" cy="-103.97" fill="#85e1ff"></circle><circle r="5" cx="1578.85" cy="89.46" fill="#85e1ff"></circle><circle r="5" cx="1611.53" cy="520.96" fill="#85e1ff"></circle><circle r="5" cx="1538.56" cy="690.4" fill="#85e1ff"></circle></g><defs><mask id="SvgjsMask1004"><rect width="1440" height="560" fill="#ffffff"></rect></mask><radialGradient id="SvgjsRadialGradient1005"><stop stop-color="#ffffff" offset="0.1"></stop><stop stop-color="rgba(10, 194, 255, 1)" offset="0.2"></stop><stop stop-color="rgba(10, 194, 255, 0)" offset="1"></stop></radialGradient></defs></svg>