<svg xmlns="http://www.w3.org/2000/svg" version="1.1" xmlns:xlink="http://www.w3.org/1999/xlink" xmlns:svgjs="http://svgjs.dev/svgjs" width="1440" height="560" preserveAspectRatio="none" viewBox="0 0 1440 560"><g mask="url(&quot;#SvgjsMask1030&quot;)" fill="none"><path d="M-56.1 403.89L-56.1 403.89" stroke="rgba(196, 196, 196, 1)" stroke-width="1.5"></path><path d="M-56.1 403.89L-89.75 492.37" stroke="rgba(196, 196, 196, 1)" stroke-width="1.5"></path><path d="M-56.1 403.89L56.72 378.18" stroke="rgba(196, 196, 196, 1)" stroke-width="1.5"></path><path d="M-56.1 403.89L106.59 522.14" stroke="rgba(196, 196, 196, 1)" stroke-width="1.5"></path><path d="M-56.1 403.89L203.35 358.16" stroke="rgba(196, 196, 196, 1)" stroke-width="1.5"></path><path d="M-56.1 403.89L-96.4 688.14" stroke="rgba(196, 196, 196, 1)" stroke-width="1.5"></path><path d="M-89.75 492.37L-89.75 492.37" stroke="rgba(196, 196, 196, 1)" stroke-width="1.5"></path><path d="M-89.75 492.37L56.72 378.18" stroke="rgba(196, 196, 196, 1)" stroke-width="1.5"></path><path d="M-96.4 688.14L-96.4 688.14" stroke="rgba(196, 196, 196, 1)" stroke-width="1.5"></path><path d="M-96.4 688.14L-89.75 492.37" stroke="rgba(196, 196, 196, 1)" stroke-width="1.5"></path><path d="M-96.4 688.14L106.01 666.73" stroke="rgba(196, 196, 196, 1)" stroke-width="1.5"></path><path d="M-96.4 688.14L106.59 522.14" stroke="rgba(196, 196, 196, 1)" stroke-width="1.5"></path><path d="M-96.4 688.14L193.48 653.94" stroke="rgba(196, 196, 196, 1)" stroke-width="1.5"></path><path d="M-96.4 688.14L56.72 378.18" stroke="rgba(196, 196, 196, 1)" stroke-width="1.5"></path><path d="M56.72 378.18L56.72 378.18" stroke="rgba(196, 196, 196, 1)" stroke-width="1.5"></path><path d="M56.72 378.18L203.35 358.16" stroke="rgba(196, 196, 196, 1)" stroke-width="1.5"></path><path d="M56.72 378.18L106.59 522.14" stroke="rgba(196, 196, 196, 1)" stroke-width="1.5"></path><path d="M106.59 522.14L106.59 522.14" stroke="rgba(196, 196, 196, 1)" stroke-width="1.5"></path><path d="M106.59 522.14L232.62 560.86" stroke="rgba(196, 196, 196, 1)" stroke-width="1.5"></path><path d="M106.59 522.14L106.01 666.73" stroke="rgba(196, 196, 196, 1)" stroke-width="1.5"></path><path d="M106.01 666.73L106.01 666.73" stroke="rgba(196, 196, 196, 1)" stroke-width="1.5"></path><path d="M106.01 666.73L193.48 653.94" stroke="rgba(196, 196, 196, 1)" stroke-width="1.5"></path><path d="M106.01 666.73L232.62 560.86" stroke="rgba(196, 196, 196, 1)" stroke-width="1.5"></path><path d="M203.35 358.16L203.35 358.16" stroke="rgba(196, 196, 196, 1)" stroke-width="1.5"></path><path d="M203.35 358.16L348.94 373.58" stroke="rgba(196, 196, 196, 1)" stroke-width="1.5"></path><path d="M203.35 358.16L106.59 522.14" stroke="rgba(196, 196, 196, 1)" stroke-width="1.5"></path><path d="M203.35 358.16L232.62 560.86" stroke="rgba(196, 196, 196, 1)" stroke-width="1.5"></path><path d="M232.62 560.86L232.62 560.86" stroke="rgba(196, 196, 196, 1)" stroke-width="1.5"></path><path d="M232.62 560.86L193.48 653.94" stroke="rgba(196, 196, 196, 1)" stroke-width="1.5"></path><path d="M193.48 653.94L193.48 653.94" stroke="rgba(196, 196, 196, 1)" stroke-width="1.5"></path><path d="M193.48 653.94L106.59 522.14" stroke="rgba(196, 196, 196, 1)" stroke-width="1.5"></path><path d="M348.94 373.58L348.94 373.58" stroke="rgba(196, 196, 196, 1)" stroke-width="1.5"></path><path d="M348.94 373.58L400.09 519.29" stroke="rgba(196, 196, 196, 1)" stroke-width="1.5"></path><path d="M400.09 519.29L400.09 519.29" stroke="rgba(196, 196, 196, 1)" stroke-width="1.5"></path><path d="M400.09 519.29L513.1 502.67" stroke="rgba(196, 196, 196, 1)" stroke-width="1.5"></path><path d="M400.09 519.29L383.6 688.96" stroke="rgba(196, 196, 196, 1)" stroke-width="1.5"></path><path d="M400.09 519.29L232.62 560.86" stroke="rgba(196, 196, 196, 1)" stroke-width="1.5"></path><path d="M383.6 688.96L383.6 688.96" stroke="rgba(196, 196, 196, 1)" stroke-width="1.5"></path><path d="M383.6 688.96L554.81 693.45" stroke="rgba(196, 196, 196, 1)" stroke-width="1.5"></path><path d="M383.6 688.96L193.48 653.94" stroke="rgba(196, 196, 196, 1)" stroke-width="1.5"></path><path d="M383.6 688.96L232.62 560.86" stroke="rgba(196, 196, 196, 1)" stroke-width="1.5"></path><path d="M383.6 688.96L513.1 502.67" stroke="rgba(196, 196, 196, 1)" stroke-width="1.5"></path><path d="M383.6 688.96L643.98 666.62" stroke="rgba(196, 196, 196, 1)" stroke-width="1.5"></path><path d="M553.71 358.71L553.71 358.71" stroke="rgba(196, 196, 196, 1)" stroke-width="1.5"></path><path d="M553.71 358.71L513.1 502.67" stroke="rgba(196, 196, 196, 1)" stroke-width="1.5"></path><path d="M553.71 358.71L709.8 386.73" stroke="rgba(196, 196, 196, 1)" stroke-width="1.5"></path><path d="M553.71 358.71L651.45 231.93" stroke="rgba(196, 196, 196, 1)" stroke-width="1.5"></path><path d="M513.1 502.67L513.1 502.67" stroke="rgba(196, 196, 196, 1)" stroke-width="1.5"></path><path d="M513.1 502.67L665.41 521.07" stroke="rgba(196, 196, 196, 1)" stroke-width="1.5"></path><path d="M513.1 502.67L554.81 693.45" stroke="rgba(196, 196, 196, 1)" stroke-width="1.5"></path><path d="M513.1 502.67L348.94 373.58" stroke="rgba(196, 196, 196, 1)" stroke-width="1.5"></path><path d="M554.81 693.45L554.81 693.45" stroke="rgba(196, 196, 196, 1)" stroke-width="1.5"></path><path d="M554.81 693.45L643.98 666.62" stroke="rgba(196, 196, 196, 1)" stroke-width="1.5"></path><path d="M554.81 693.45L665.41 521.07" stroke="rgba(196, 196, 196, 1)" stroke-width="1.5"></path><path d="M554.81 693.45L400.09 519.29" stroke="rgba(196, 196, 196, 1)" stroke-width="1.5"></path><path d="M651.45 231.93L651.45 231.93" stroke="rgba(196, 196, 196, 1)" stroke-width="1.5"></path><path d="M709.8 386.73L709.8 386.73" stroke="rgba(196, 196, 196, 1)" stroke-width="1.5"></path><path d="M709.8 386.73L815.89 408.91" stroke="rgba(196, 196, 196, 1)" stroke-width="1.5"></path><path d="M709.8 386.73L665.41 521.07" stroke="rgba(196, 196, 196, 1)" stroke-width="1.5"></path><path d="M665.41 521.07L665.41 521.07" stroke="rgba(196, 196, 196, 1)" stroke-width="1.5"></path><path d="M665.41 521.07L643.98 666.62" stroke="rgba(196, 196, 196, 1)" stroke-width="1.5"></path><path d="M665.41 521.07L825.64 497.32" stroke="rgba(196, 196, 196, 1)" stroke-width="1.5"></path><path d="M665.41 521.07L815.89 408.91" stroke="rgba(196, 196, 196, 1)" stroke-width="1.5"></path><path d="M643.98 666.62L643.98 666.62" stroke="rgba(196, 196, 196, 1)" stroke-width="1.5"></path><path d="M643.98 666.62L805.19 690.98" stroke="rgba(196, 196, 196, 1)" stroke-width="1.5"></path><path d="M643.98 666.62L513.1 502.67" stroke="rgba(196, 196, 196, 1)" stroke-width="1.5"></path><path d="M643.98 666.62L825.64 497.32" stroke="rgba(196, 196, 196, 1)" stroke-width="1.5"></path><path d="M847.75 88.21L847.75 88.21" stroke="rgba(196, 196, 196, 1)" stroke-width="1.5"></path><path d="M847.75 88.21L963.94 83.26" stroke="rgba(196, 196, 196, 1)" stroke-width="1.5"></path><path d="M847.75 88.21L852.97 246.02" stroke="rgba(196, 196, 196, 1)" stroke-width="1.5"></path><path d="M847.75 88.21L976.54 218.07" stroke="rgba(196, 196, 196, 1)" stroke-width="1.5"></path><path d="M852.97 246.02L852.97 246.02" stroke="rgba(196, 196, 196, 1)" stroke-width="1.5"></path><path d="M852.97 246.02L976.54 218.07" stroke="rgba(196, 196, 196, 1)" stroke-width="1.5"></path><path d="M852.97 246.02L815.89 408.91" stroke="rgba(196, 196, 196, 1)" stroke-width="1.5"></path><path d="M815.89 408.91L815.89 408.91" stroke="rgba(196, 196, 196, 1)" stroke-width="1.5"></path><path d="M815.89 408.91L825.64 497.32" stroke="rgba(196, 196, 196, 1)" stroke-width="1.5"></path><path d="M825.64 497.32L825.64 497.32" stroke="rgba(196, 196, 196, 1)" stroke-width="1.5"></path><path d="M825.64 497.32L709.8 386.73" stroke="rgba(196, 196, 196, 1)" stroke-width="1.5"></path><path d="M825.64 497.32L1012.06 527.93" stroke="rgba(196, 196, 196, 1)" stroke-width="1.5"></path><path d="M805.19 690.98L805.19 690.98" stroke="rgba(196, 196, 196, 1)" stroke-width="1.5"></path><path d="M805.19 690.98L825.64 497.32" stroke="rgba(196, 196, 196, 1)" stroke-width="1.5"></path><path d="M984.99 -109.51L984.99 -109.51" stroke="rgba(196, 196, 196, 1)" stroke-width="1.5"></path><path d="M984.99 -109.51L1104.26 -77.59" stroke="rgba(196, 196, 196, 1)" stroke-width="1.5"></path><path d="M984.99 -109.51L963.94 83.26" stroke="rgba(196, 196, 196, 1)" stroke-width="1.5"></path><path d="M984.99 -109.51L1144.26 37.74" stroke="rgba(196, 196, 196, 1)" stroke-width="1.5"></path><path d="M963.94 83.26L963.94 83.26" stroke="rgba(196, 196, 196, 1)" stroke-width="1.5"></path><path d="M963.94 83.26L976.54 218.07" stroke="rgba(196, 196, 196, 1)" stroke-width="1.5"></path><path d="M963.94 83.26L1144.26 37.74" stroke="rgba(196, 196, 196, 1)" stroke-width="1.5"></path><path d="M976.54 218.07L976.54 218.07" stroke="rgba(196, 196, 196, 1)" stroke-width="1.5"></path><path d="M976.54 218.07L1134.42 216.35" stroke="rgba(196, 196, 196, 1)" stroke-width="1.5"></path><path d="M976.54 218.07L1005.63 403.72" stroke="rgba(196, 196, 196, 1)" stroke-width="1.5"></path><path d="M1005.63 403.72L1005.63 403.72" stroke="rgba(196, 196, 196, 1)" stroke-width="1.5"></path><path d="M1005.63 403.72L1012.06 527.93" stroke="rgba(196, 196, 196, 1)" stroke-width="1.5"></path><path d="M1005.63 403.72L1134.9 353.28" stroke="rgba(196, 196, 196, 1)" stroke-width="1.5"></path><path d="M1005.63 403.72L1160.77 488.14" stroke="rgba(196, 196, 196, 1)" stroke-width="1.5"></path><path d="M1005.63 403.72L815.89 408.91" stroke="rgba(196, 196, 196, 1)" stroke-width="1.5"></path><path d="M1012.06 527.93L1012.06 527.93" stroke="rgba(196, 196, 196, 1)" stroke-width="1.5"></path><path d="M1012.06 527.93L1160.77 488.14" stroke="rgba(196, 196, 196, 1)" stroke-width="1.5"></path><path d="M1012.06 527.93L1009.99 706.52" stroke="rgba(196, 196, 196, 1)" stroke-width="1.5"></path><path d="M1012.06 527.93L1114.81 702.97" stroke="rgba(196, 196, 196, 1)" stroke-width="1.5"></path><path d="M1012.06 527.93L1134.9 353.28" stroke="rgba(196, 196, 196, 1)" stroke-width="1.5"></path><path d="M1009.99 706.52L1009.99 706.52" stroke="rgba(196, 196, 196, 1)" stroke-width="1.5"></path><path d="M1009.99 706.52L1114.81 702.97" stroke="rgba(196, 196, 196, 1)" stroke-width="1.5"></path><path d="M1009.99 706.52L805.19 690.98" stroke="rgba(196, 196, 196, 1)" stroke-width="1.5"></path><path d="M1009.99 706.52L1249.1 710.63" stroke="rgba(196, 196, 196, 1)" stroke-width="1.5"></path><path d="M1009.99 706.52L1160.77 488.14" stroke="rgba(196, 196, 196, 1)" stroke-width="1.5"></path><path d="M1009.99 706.52L825.64 497.32" stroke="rgba(196, 196, 196, 1)" stroke-width="1.5"></path><path d="M1104.26 -77.59L1104.26 -77.59" stroke="rgba(196, 196, 196, 1)" stroke-width="1.5"></path><path d="M1104.26 -77.59L1144.26 37.74" stroke="rgba(196, 196, 196, 1)" stroke-width="1.5"></path><path d="M1104.26 -77.59L1292.68 -86.37" stroke="rgba(196, 196, 196, 1)" stroke-width="1.5"></path><path d="M1104.26 -77.59L963.94 83.26" stroke="rgba(196, 196, 196, 1)" stroke-width="1.5"></path><path d="M1104.26 -77.59L1255.01 86.91" stroke="rgba(196, 196, 196, 1)" stroke-width="1.5"></path><path d="M1104.26 -77.59L1398.34 -103.17" stroke="rgba(196, 196, 196, 1)" stroke-width="1.5"></path><path d="M1144.26 37.74L1144.26 37.74" stroke="rgba(196, 196, 196, 1)" stroke-width="1.5"></path><path d="M1144.26 37.74L1255.01 86.91" stroke="rgba(196, 196, 196, 1)" stroke-width="1.5"></path><path d="M1144.26 37.74L1134.42 216.35" stroke="rgba(196, 196, 196, 1)" stroke-width="1.5"></path><path d="M1134.42 216.35L1134.42 216.35" stroke="rgba(196, 196, 196, 1)" stroke-width="1.5"></path><path d="M1134.42 216.35L1134.9 353.28" stroke="rgba(196, 196, 196, 1)" stroke-width="1.5"></path><path d="M1134.42 216.35L1304.83 256.48" stroke="rgba(196, 196, 196, 1)" stroke-width="1.5"></path><path d="M1134.42 216.35L1255.01 86.91" stroke="rgba(196, 196, 196, 1)" stroke-width="1.5"></path><path d="M1134.9 353.28L1134.9 353.28" stroke="rgba(196, 196, 196, 1)" stroke-width="1.5"></path><path d="M1134.9 353.28L1160.77 488.14" stroke="rgba(196, 196, 196, 1)" stroke-width="1.5"></path><path d="M1160.77 488.14L1160.77 488.14" stroke="rgba(196, 196, 196, 1)" stroke-width="1.5"></path><path d="M1160.77 488.14L1240.6 532.94" stroke="rgba(196, 196, 196, 1)" stroke-width="1.5"></path><path d="M1160.77 488.14L1272.57 397.53" stroke="rgba(196, 196, 196, 1)" stroke-width="1.5"></path><path d="M1114.81 702.97L1114.81 702.97" stroke="rgba(196, 196, 196, 1)" stroke-width="1.5"></path><path d="M1114.81 702.97L1249.1 710.63" stroke="rgba(196, 196, 196, 1)" stroke-width="1.5"></path><path d="M1114.81 702.97L1240.6 532.94" stroke="rgba(196, 196, 196, 1)" stroke-width="1.5"></path><path d="M1114.81 702.97L1160.77 488.14" stroke="rgba(196, 196, 196, 1)" stroke-width="1.5"></path><path d="M1114.81 702.97L805.19 690.98" stroke="rgba(196, 196, 196, 1)" stroke-width="1.5"></path><path d="M1292.68 -86.37L1292.68 -86.37" stroke="rgba(196, 196, 196, 1)" stroke-width="1.5"></path><path d="M1292.68 -86.37L1398.34 -103.17" stroke="rgba(196, 196, 196, 1)" stroke-width="1.5"></path><path d="M1292.68 -86.37L1255.01 86.91" stroke="rgba(196, 196, 196, 1)" stroke-width="1.5"></path><path d="M1255.01 86.91L1255.01 86.91" stroke="rgba(196, 196, 196, 1)" stroke-width="1.5"></path><path d="M1255.01 86.91L1304.83 256.48" stroke="rgba(196, 196, 196, 1)" stroke-width="1.5"></path><path d="M1304.83 256.48L1304.83 256.48" stroke="rgba(196, 196, 196, 1)" stroke-width="1.5"></path><path d="M1304.83 256.48L1413.45 259.2" stroke="rgba(196, 196, 196, 1)" stroke-width="1.5"></path><path d="M1304.83 256.48L1272.57 397.53" stroke="rgba(196, 196, 196, 1)" stroke-width="1.5"></path><path d="M1304.83 256.48L1400.17 371.64" stroke="rgba(196, 196, 196, 1)" stroke-width="1.5"></path><path d="M1272.57 397.53L1272.57 397.53" stroke="rgba(196, 196, 196, 1)" stroke-width="1.5"></path><path d="M1272.57 397.53L1400.17 371.64" stroke="rgba(196, 196, 196, 1)" stroke-width="1.5"></path><path d="M1272.57 397.53L1240.6 532.94" stroke="rgba(196, 196, 196, 1)" stroke-width="1.5"></path><path d="M1240.6 532.94L1240.6 532.94" stroke="rgba(196, 196, 196, 1)" stroke-width="1.5"></path><path d="M1249.1 710.63L1249.1 710.63" stroke="rgba(196, 196, 196, 1)" stroke-width="1.5"></path><path d="M1249.1 710.63L1240.6 532.94" stroke="rgba(196, 196, 196, 1)" stroke-width="1.5"></path><path d="M1249.1 710.63L1160.77 488.14" stroke="rgba(196, 196, 196, 1)" stroke-width="1.5"></path><path d="M1398.34 -103.17L1398.34 -103.17" stroke="rgba(196, 196, 196, 1)" stroke-width="1.5"></path><path d="M1398.34 -103.17L1571.62 -86.9" stroke="rgba(196, 196, 196, 1)" stroke-width="1.5"></path><path d="M1398.34 -103.17L1460.44 92.5" stroke="rgba(196, 196, 196, 1)" stroke-width="1.5"></path><path d="M1398.34 -103.17L1255.01 86.91" stroke="rgba(196, 196, 196, 1)" stroke-width="1.5"></path><path d="M1398.34 -103.17L1576.44 61.91" stroke="rgba(196, 196, 196, 1)" stroke-width="1.5"></path><path d="M1398.34 -103.17L1144.26 37.74" stroke="rgba(196, 196, 196, 1)" stroke-width="1.5"></path><path d="M1460.44 92.5L1460.44 92.5" stroke="rgba(196, 196, 196, 1)" stroke-width="1.5"></path><path d="M1460.44 92.5L1576.44 61.91" stroke="rgba(196, 196, 196, 1)" stroke-width="1.5"></path><path d="M1460.44 92.5L1413.45 259.2" stroke="rgba(196, 196, 196, 1)" stroke-width="1.5"></path><path d="M1413.45 259.2L1413.45 259.2" stroke="rgba(196, 196, 196, 1)" stroke-width="1.5"></path><path d="M1413.45 259.2L1400.17 371.64" stroke="rgba(196, 196, 196, 1)" stroke-width="1.5"></path><path d="M1413.45 259.2L1544.56 244.89" stroke="rgba(196, 196, 196, 1)" stroke-width="1.5"></path><path d="M1413.45 259.2L1272.57 397.53" stroke="rgba(196, 196, 196, 1)" stroke-width="1.5"></path><path d="M1413.45 259.2L1601.88 364.24" stroke="rgba(196, 196, 196, 1)" stroke-width="1.5"></path><path d="M1400.17 371.64L1400.17 371.64" stroke="rgba(196, 196, 196, 1)" stroke-width="1.5"></path><path d="M1400.17 371.64L1544.56 244.89" stroke="rgba(196, 196, 196, 1)" stroke-width="1.5"></path><path d="M1571.62 -86.9L1571.62 -86.9" stroke="rgba(196, 196, 196, 1)" stroke-width="1.5"></path><path d="M1571.62 -86.9L1576.44 61.91" stroke="rgba(196, 196, 196, 1)" stroke-width="1.5"></path><path d="M1571.62 -86.9L1460.44 92.5" stroke="rgba(196, 196, 196, 1)" stroke-width="1.5"></path><path d="M1571.62 -86.9L1292.68 -86.37" stroke="rgba(196, 196, 196, 1)" stroke-width="1.5"></path><path d="M1571.62 -86.9L1544.56 244.89" stroke="rgba(196, 196, 196, 1)" stroke-width="1.5"></path><path d="M1571.62 -86.9L1255.01 86.91" stroke="rgba(196, 196, 196, 1)" stroke-width="1.5"></path><path d="M1576.44 61.91L1576.44 61.91" stroke="rgba(196, 196, 196, 1)" stroke-width="1.5"></path><path d="M1576.44 61.91L1544.56 244.89" stroke="rgba(196, 196, 196, 1)" stroke-width="1.5"></path><path d="M1544.56 244.89L1544.56 244.89" stroke="rgba(196, 196, 196, 1)" stroke-width="1.5"></path><path d="M1544.56 244.89L1601.88 364.24" stroke="rgba(196, 196, 196, 1)" stroke-width="1.5"></path><path d="M1544.56 244.89L1460.44 92.5" stroke="rgba(196, 196, 196, 1)" stroke-width="1.5"></path><path d="M1601.88 364.24L1601.88 364.24" stroke="rgba(196, 196, 196, 1)" stroke-width="1.5"></path><path d="M1601.88 364.24L1581.32 504.53" stroke="rgba(196, 196, 196, 1)" stroke-width="1.5"></path><path d="M1601.88 364.24L1400.17 371.64" stroke="rgba(196, 196, 196, 1)" stroke-width="1.5"></path><path d="M1601.88 364.24L1576.44 61.91" stroke="rgba(196, 196, 196, 1)" stroke-width="1.5"></path><path d="M1601.88 364.24L1460.44 92.5" stroke="rgba(196, 196, 196, 1)" stroke-width="1.5"></path><path d="M1581.32 504.53L1581.32 504.53" stroke="rgba(196, 196, 196, 1)" stroke-width="1.5"></path><path d="M1581.32 504.53L1587.25 711.14" stroke="rgba(196, 196, 196, 1)" stroke-width="1.5"></path><path d="M1581.32 504.53L1400.17 371.64" stroke="rgba(196, 196, 196, 1)" stroke-width="1.5"></path><path d="M1581.32 504.53L1544.56 244.89" stroke="rgba(196, 196, 196, 1)" stroke-width="1.5"></path><path d="M1587.25 711.14L1587.25 711.14" stroke="rgba(196, 196, 196, 1)" stroke-width="1.5"></path><path d="M1587.25 711.14L1249.1 710.63" stroke="rgba(196, 196, 196, 1)" stroke-width="1.5"></path><path d="M1587.25 711.14L1601.88 364.24" stroke="rgba(196, 196, 196, 1)" stroke-width="1.5"></path><path d="M1587.25 711.14L1400.17 371.64" stroke="rgba(196, 196, 196, 1)" stroke-width="1.5"></path><path d="M1587.25 711.14L1240.6 532.94" stroke="rgba(196, 196, 196, 1)" stroke-width="1.5"></path><path d="M1587.25 711.14L1272.57 397.53" stroke="rgba(196, 196, 196, 1)" stroke-width="1.5"></path><circle r="5" cx="-56.1" cy="403.89" fill="rgba(196, 196, 196, 1)"></circle><circle r="5" cx="-89.75" cy="492.37" fill="rgba(196, 196, 196, 1)"></circle><circle r="5" cx="-96.4" cy="688.14" fill="rgba(196, 196, 196, 1)"></circle><circle r="5" cx="56.72" cy="378.18" fill="rgba(196, 196, 196, 1)"></circle><circle r="5" cx="106.59" cy="522.14" fill="rgba(196, 196, 196, 1)"></circle><circle r="5" cx="106.01" cy="666.73" fill="rgba(196, 196, 196, 1)"></circle><circle r="5" cx="203.35" cy="358.16" fill="rgba(196, 196, 196, 1)"></circle><circle r="5" cx="232.62" cy="560.86" fill="rgba(196, 196, 196, 1)"></circle><circle r="5" cx="193.48" cy="653.94" fill="rgba(196, 196, 196, 1)"></circle><circle r="5" cx="348.94" cy="373.58" fill="rgba(196, 196, 196, 1)"></circle><circle r="5" cx="400.09" cy="519.29" fill="rgba(196, 196, 196, 1)"></circle><circle r="5" cx="383.6" cy="688.96" fill="rgba(196, 196, 196, 1)"></circle><circle r="5" cx="553.71" cy="358.71" fill="rgba(196, 196, 196, 1)"></circle><circle r="5" cx="513.1" cy="502.67" fill="rgba(196, 196, 196, 1)"></circle><circle r="5" cx="554.81" cy="693.45" fill="rgba(196, 196, 196, 1)"></circle><circle r="5" cx="651.45" cy="231.93" fill="rgba(196, 196, 196, 1)"></circle><circle r="5" cx="709.8" cy="386.73" fill="rgba(196, 196, 196, 1)"></circle><circle r="5" cx="665.41" cy="521.07" fill="rgba(196, 196, 196, 1)"></circle><circle r="5" cx="643.98" cy="666.62" fill="rgba(196, 196, 196, 1)"></circle><circle r="5" cx="847.75" cy="88.21" fill="rgba(196, 196, 196, 1)"></circle><circle r="5" cx="852.97" cy="246.02" fill="rgba(196, 196, 196, 1)"></circle><circle r="5" cx="815.89" cy="408.91" fill="rgba(196, 196, 196, 1)"></circle><circle r="5" cx="825.64" cy="497.32" fill="rgba(196, 196, 196, 1)"></circle><circle r="5" cx="805.19" cy="690.98" fill="rgba(196, 196, 196, 1)"></circle><circle r="5" cx="984.99" cy="-109.51" fill="rgba(196, 196, 196, 1)"></circle><circle r="5" cx="963.94" cy="83.26" fill="rgba(196, 196, 196, 1)"></circle><circle r="5" cx="976.54" cy="218.07" fill="rgba(196, 196, 196, 1)"></circle><circle r="5" cx="1005.63" cy="403.72" fill="rgba(196, 196, 196, 1)"></circle><circle r="5" cx="1012.06" cy="527.93" fill="rgba(196, 196, 196, 1)"></circle><circle r="5" cx="1009.99" cy="706.52" fill="rgba(196, 196, 196, 1)"></circle><circle r="5" cx="1104.26" cy="-77.59" fill="rgba(196, 196, 196, 1)"></circle><circle r="5" cx="1144.26" cy="37.74" fill="rgba(196, 196, 196, 1)"></circle><circle r="5" cx="1134.42" cy="216.35" fill="rgba(196, 196, 196, 1)"></circle><circle r="5" cx="1134.9" cy="353.28" fill="rgba(196, 196, 196, 1)"></circle><circle r="5" cx="1160.77" cy="488.14" fill="rgba(196, 196, 196, 1)"></circle><circle r="5" cx="1114.81" cy="702.97" fill="rgba(196, 196, 196, 1)"></circle><circle r="5" cx="1292.68" cy="-86.37" fill="rgba(196, 196, 196, 1)"></circle><circle r="5" cx="1255.01" cy="86.91" fill="rgba(196, 196, 196, 1)"></circle><circle r="5" cx="1304.83" cy="256.48" fill="rgba(196, 196, 196, 1)"></circle><circle r="5" cx="1272.57" cy="397.53" fill="rgba(196, 196, 196, 1)"></circle><circle r="5" cx="1240.6" cy="532.94" fill="rgba(196, 196, 196, 1)"></circle><circle r="5" cx="1249.1" cy="710.63" fill="rgba(196, 196, 196, 1)"></circle><circle r="5" cx="1398.34" cy="-103.17" fill="rgba(196, 196, 196, 1)"></circle><circle r="5" cx="1460.44" cy="92.5" fill="rgba(196, 196, 196, 1)"></circle><circle r="5" cx="1413.45" cy="259.2" fill="rgba(196, 196, 196, 1)"></circle><circle r="5" cx="1400.17" cy="371.64" fill="rgba(196, 196, 196, 1)"></circle><circle r="5" cx="1571.62" cy="-86.9" fill="rgba(196, 196, 196, 1)"></circle><circle r="5" cx="1576.44" cy="61.91" fill="rgba(196, 196, 196, 1)"></circle><circle r="5" cx="1544.56" cy="244.89" fill="rgba(196, 196, 196, 1)"></circle><circle r="5" cx="1601.88" cy="364.24" fill="rgba(196, 196, 196, 1)"></circle><circle r="5" cx="1581.32" cy="504.53" fill="rgba(196, 196, 196, 1)"></circle><circle r="5" cx="1587.25" cy="711.14" fill="rgba(196, 196, 196, 1)"></circle><path d="M73.02 509.06L73.02 509.06" stroke="hsl(0, 0%, 100%)" stroke-width="1.5"></path><path d="M73.02 509.06L224.32 553.92" stroke="hsl(0, 0%, 100%)" stroke-width="1.5"></path><path d="M73.02 509.06L-87.62 550.5" stroke="hsl(0, 0%, 100%)" stroke-width="1.5"></path><path d="M73.02 509.06L78.13 706.94" stroke="hsl(0, 0%, 100%)" stroke-width="1.5"></path><path d="M73.02 509.06L229.59 692.54" stroke="hsl(0, 0%, 100%)" stroke-width="1.5"></path><path d="M656.26 400.54L656.26 400.54" stroke="hsl(0, 0%, 100%)" stroke-width="1.5"></path><path d="M656.26 400.54L675.07 553.64" stroke="hsl(0, 0%, 100%)" stroke-width="1.5"></path><path d="M656.26 400.54L502.89 537.09" stroke="hsl(0, 0%, 100%)" stroke-width="1.5"></path><path d="M675.07 553.64L675.07 553.64" stroke="hsl(0, 0%, 100%)" stroke-width="1.5"></path><path d="M675.07 553.64L696.98 665.14" stroke="hsl(0, 0%, 100%)" stroke-width="1.5"></path><path d="M675.07 553.64L817.75 531.9" stroke="hsl(0, 0%, 100%)" stroke-width="1.5"></path><path d="M675.07 553.64L502.89 537.09" stroke="hsl(0, 0%, 100%)" stroke-width="1.5"></path><path d="M675.07 553.64L521.75 678.5" stroke="hsl(0, 0%, 100%)" stroke-width="1.5"></path><path d="M675.07 553.64L859.23 695.77" stroke="hsl(0, 0%, 100%)" stroke-width="1.5"></path><path d="M953.88 502.55L953.88 502.55" stroke="hsl(0, 0%, 100%)" stroke-width="1.5"></path><path d="M953.88 502.55L992.83 368.98" stroke="hsl(0, 0%, 100%)" stroke-width="1.5"></path><path d="M953.88 502.55L817.75 531.9" stroke="hsl(0, 0%, 100%)" stroke-width="1.5"></path><path d="M953.88 502.55L1012.12 638.1" stroke="hsl(0, 0%, 100%)" stroke-width="1.5"></path><path d="M953.88 502.55L1103.58 492.43" stroke="hsl(0, 0%, 100%)" stroke-width="1.5"></path><path d="M953.88 502.55L859.23 695.77" stroke="hsl(0, 0%, 100%)" stroke-width="1.5"></path><path d="M1133.22 108.48L1133.22 108.48" stroke="hsl(0, 0%, 100%)" stroke-width="1.5"></path><path d="M1133.22 108.48L1143.79 221.74" stroke="hsl(0, 0%, 100%)" stroke-width="1.5"></path><path d="M1133.22 108.48L1297.17 60.77" stroke="hsl(0, 0%, 100%)" stroke-width="1.5"></path><path d="M1103.58 492.43L1103.58 492.43" stroke="hsl(0, 0%, 100%)" stroke-width="1.5"></path><path d="M1103.58 492.43L1160.98 378.59" stroke="hsl(0, 0%, 100%)" stroke-width="1.5"></path><path d="M1403.55 56.83L1403.55 56.83" stroke="hsl(0, 0%, 100%)" stroke-width="1.5"></path><path d="M1403.55 56.83L1297.17 60.77" stroke="hsl(0, 0%, 100%)" stroke-width="1.5"></path><path d="M1422.99 497.09L1422.99 497.09" stroke="hsl(0, 0%, 100%)" stroke-width="1.5"></path><path d="M1422.99 497.09L1389.92 361.61" stroke="hsl(0, 0%, 100%)" stroke-width="1.5"></path><path d="M1422.99 497.09L1401.18 662.17" stroke="hsl(0, 0%, 100%)" stroke-width="1.5"></path><path d="M1422.99 497.09L1558.12 395.24" stroke="hsl(0, 0%, 100%)" stroke-width="1.5"></path><path d="M1422.99 497.09L1597.08 519.92" stroke="hsl(0, 0%, 100%)" stroke-width="1.5"></path><path d="M1422.99 497.09L1238.82 397.29" stroke="hsl(0, 0%, 100%)" stroke-width="1.5"></path><path d="M1422.99 497.09L1439.77 262.49" stroke="hsl(0, 0%, 100%)" stroke-width="1.5"></path><path d="M1558.12 395.24L1558.12 395.24" stroke="hsl(0, 0%, 100%)" stroke-width="1.5"></path><path d="M1558.12 395.24L1597.08 519.92" stroke="hsl(0, 0%, 100%)" stroke-width="1.5"></path><path d="M1558.12 395.24L1389.92 361.61" stroke="hsl(0, 0%, 100%)" stroke-width="1.5"></path><path d="M-87.62 550.5L-87.62 550.5" stroke="hsl(0, 0%, 100%)" stroke-width="1.5"></path><path d="M-87.62 550.5L78.13 706.94" stroke="hsl(0, 0%, 100%)" stroke-width="1.5"></path><path d="M-87.62 550.5L224.32 553.92" stroke="hsl(0, 0%, 100%)" stroke-width="1.5"></path><path d="M-87.62 550.5L229.59 692.54" stroke="hsl(0, 0%, 100%)" stroke-width="1.5"></path><path d="M-87.62 550.5L358.89 698.38" stroke="hsl(0, 0%, 100%)" stroke-width="1.5"></path><path d="M-87.62 550.5L399.47 514.94" stroke="hsl(0, 0%, 100%)" stroke-width="1.5"></path><path d="M78.13 706.94L78.13 706.94" stroke="hsl(0, 0%, 100%)" stroke-width="1.5"></path><path d="M78.13 706.94L229.59 692.54" stroke="hsl(0, 0%, 100%)" stroke-width="1.5"></path><path d="M224.32 553.92L224.32 553.92" stroke="hsl(0, 0%, 100%)" stroke-width="1.5"></path><path d="M224.32 553.92L229.59 692.54" stroke="hsl(0, 0%, 100%)" stroke-width="1.5"></path><path d="M229.59 692.54L229.59 692.54" stroke="hsl(0, 0%, 100%)" stroke-width="1.5"></path><path d="M229.59 692.54L358.89 698.38" stroke="hsl(0, 0%, 100%)" stroke-width="1.5"></path><path d="M399.47 514.94L399.47 514.94" stroke="hsl(0, 0%, 100%)" stroke-width="1.5"></path><path d="M399.47 514.94L502.89 537.09" stroke="hsl(0, 0%, 100%)" stroke-width="1.5"></path><path d="M399.47 514.94L224.32 553.92" stroke="hsl(0, 0%, 100%)" stroke-width="1.5"></path><path d="M399.47 514.94L358.89 698.38" stroke="hsl(0, 0%, 100%)" stroke-width="1.5"></path><path d="M399.47 514.94L521.75 678.5" stroke="hsl(0, 0%, 100%)" stroke-width="1.5"></path><path d="M358.89 698.38L358.89 698.38" stroke="hsl(0, 0%, 100%)" stroke-width="1.5"></path><path d="M358.89 698.38L521.75 678.5" stroke="hsl(0, 0%, 100%)" stroke-width="1.5"></path><path d="M358.89 698.38L224.32 553.92" stroke="hsl(0, 0%, 100%)" stroke-width="1.5"></path><path d="M358.89 698.38L502.89 537.09" stroke="hsl(0, 0%, 100%)" stroke-width="1.5"></path><path d="M358.89 698.38L78.13 706.94" stroke="hsl(0, 0%, 100%)" stroke-width="1.5"></path><path d="M502.89 537.09L502.89 537.09" stroke="hsl(0, 0%, 100%)" stroke-width="1.5"></path><path d="M502.89 537.09L521.75 678.5" stroke="hsl(0, 0%, 100%)" stroke-width="1.5"></path><path d="M502.89 537.09L696.98 665.14" stroke="hsl(0, 0%, 100%)" stroke-width="1.5"></path><path d="M521.75 678.5L521.75 678.5" stroke="hsl(0, 0%, 100%)" stroke-width="1.5"></path><path d="M521.75 678.5L696.98 665.14" stroke="hsl(0, 0%, 100%)" stroke-width="1.5"></path><path d="M521.75 678.5L229.59 692.54" stroke="hsl(0, 0%, 100%)" stroke-width="1.5"></path><path d="M696.98 665.14L696.98 665.14" stroke="hsl(0, 0%, 100%)" stroke-width="1.5"></path><path d="M696.98 665.14L859.23 695.77" stroke="hsl(0, 0%, 100%)" stroke-width="1.5"></path><path d="M817.75 531.9L817.75 531.9" stroke="hsl(0, 0%, 100%)" stroke-width="1.5"></path><path d="M817.75 531.9L859.23 695.77" stroke="hsl(0, 0%, 100%)" stroke-width="1.5"></path><path d="M817.75 531.9L696.98 665.14" stroke="hsl(0, 0%, 100%)" stroke-width="1.5"></path><path d="M817.75 531.9L656.26 400.54" stroke="hsl(0, 0%, 100%)" stroke-width="1.5"></path><path d="M817.75 531.9L1012.12 638.1" stroke="hsl(0, 0%, 100%)" stroke-width="1.5"></path><path d="M859.23 695.77L859.23 695.77" stroke="hsl(0, 0%, 100%)" stroke-width="1.5"></path><path d="M859.23 695.77L1012.12 638.1" stroke="hsl(0, 0%, 100%)" stroke-width="1.5"></path><path d="M992.83 368.98L992.83 368.98" stroke="hsl(0, 0%, 100%)" stroke-width="1.5"></path><path d="M992.83 368.98L1103.58 492.43" stroke="hsl(0, 0%, 100%)" stroke-width="1.5"></path><path d="M992.83 368.98L1160.98 378.59" stroke="hsl(0, 0%, 100%)" stroke-width="1.5"></path><path d="M992.83 368.98L1143.79 221.74" stroke="hsl(0, 0%, 100%)" stroke-width="1.5"></path><path d="M1012.12 638.1L1012.12 638.1" stroke="hsl(0, 0%, 100%)" stroke-width="1.5"></path><path d="M1012.12 638.1L1117.39 644.55" stroke="hsl(0, 0%, 100%)" stroke-width="1.5"></path><path d="M1012.12 638.1L1103.58 492.43" stroke="hsl(0, 0%, 100%)" stroke-width="1.5"></path><path d="M1143.79 221.74L1143.79 221.74" stroke="hsl(0, 0%, 100%)" stroke-width="1.5"></path><path d="M1143.79 221.74L1160.98 378.59" stroke="hsl(0, 0%, 100%)" stroke-width="1.5"></path><path d="M1143.79 221.74L1238.82 397.29" stroke="hsl(0, 0%, 100%)" stroke-width="1.5"></path><path d="M1143.79 221.74L1297.17 60.77" stroke="hsl(0, 0%, 100%)" stroke-width="1.5"></path><path d="M1160.98 378.59L1160.98 378.59" stroke="hsl(0, 0%, 100%)" stroke-width="1.5"></path><path d="M1160.98 378.59L1238.82 397.29" stroke="hsl(0, 0%, 100%)" stroke-width="1.5"></path><path d="M1160.98 378.59L1389.92 361.61" stroke="hsl(0, 0%, 100%)" stroke-width="1.5"></path><path d="M1117.39 644.55L1117.39 644.55" stroke="hsl(0, 0%, 100%)" stroke-width="1.5"></path><path d="M1309.73 -66.54L1309.73 -66.54" stroke="hsl(0, 0%, 100%)" stroke-width="1.5"></path><path d="M1309.73 -66.54L1415.99 -77.49" stroke="hsl(0, 0%, 100%)" stroke-width="1.5"></path><path d="M1309.73 -66.54L1297.17 60.77" stroke="hsl(0, 0%, 100%)" stroke-width="1.5"></path><path d="M1309.73 -66.54L1403.55 56.83" stroke="hsl(0, 0%, 100%)" stroke-width="1.5"></path><path d="M1309.73 -66.54L1557.63 -54.06" stroke="hsl(0, 0%, 100%)" stroke-width="1.5"></path><path d="M1297.17 60.77L1297.17 60.77" stroke="hsl(0, 0%, 100%)" stroke-width="1.5"></path><path d="M1297.17 60.77L1415.99 -77.49" stroke="hsl(0, 0%, 100%)" stroke-width="1.5"></path><path d="M1238.82 397.29L1238.82 397.29" stroke="hsl(0, 0%, 100%)" stroke-width="1.5"></path><path d="M1238.82 397.29L1389.92 361.61" stroke="hsl(0, 0%, 100%)" stroke-width="1.5"></path><path d="M1238.82 397.29L1103.58 492.43" stroke="hsl(0, 0%, 100%)" stroke-width="1.5"></path><path d="M1238.82 397.29L1439.77 262.49" stroke="hsl(0, 0%, 100%)" stroke-width="1.5"></path><path d="M1237.85 695.82L1237.85 695.82" stroke="hsl(0, 0%, 100%)" stroke-width="1.5"></path><path d="M1237.85 695.82L1117.39 644.55" stroke="hsl(0, 0%, 100%)" stroke-width="1.5"></path><path d="M1237.85 695.82L1401.18 662.17" stroke="hsl(0, 0%, 100%)" stroke-width="1.5"></path><path d="M1237.85 695.82L1012.12 638.1" stroke="hsl(0, 0%, 100%)" stroke-width="1.5"></path><path d="M1237.85 695.82L1103.58 492.43" stroke="hsl(0, 0%, 100%)" stroke-width="1.5"></path><path d="M1415.99 -77.49L1415.99 -77.49" stroke="hsl(0, 0%, 100%)" stroke-width="1.5"></path><path d="M1415.99 -77.49L1403.55 56.83" stroke="hsl(0, 0%, 100%)" stroke-width="1.5"></path><path d="M1415.99 -77.49L1557.63 -54.06" stroke="hsl(0, 0%, 100%)" stroke-width="1.5"></path><path d="M1439.77 262.49L1439.77 262.49" stroke="hsl(0, 0%, 100%)" stroke-width="1.5"></path><path d="M1439.77 262.49L1389.92 361.61" stroke="hsl(0, 0%, 100%)" stroke-width="1.5"></path><path d="M1439.77 262.49L1576.73 197.25" stroke="hsl(0, 0%, 100%)" stroke-width="1.5"></path><path d="M1439.77 262.49L1558.12 395.24" stroke="hsl(0, 0%, 100%)" stroke-width="1.5"></path><path d="M1439.77 262.49L1403.55 56.83" stroke="hsl(0, 0%, 100%)" stroke-width="1.5"></path><path d="M1389.92 361.61L1389.92 361.61" stroke="hsl(0, 0%, 100%)" stroke-width="1.5"></path><path d="M1389.92 361.61L1576.73 197.25" stroke="hsl(0, 0%, 100%)" stroke-width="1.5"></path><path d="M1401.18 662.17L1401.18 662.17" stroke="hsl(0, 0%, 100%)" stroke-width="1.5"></path><path d="M1557.63 -54.06L1557.63 -54.06" stroke="hsl(0, 0%, 100%)" stroke-width="1.5"></path><path d="M1557.63 -54.06L1610.93 78.44" stroke="hsl(0, 0%, 100%)" stroke-width="1.5"></path><path d="M1557.63 -54.06L1403.55 56.83" stroke="hsl(0, 0%, 100%)" stroke-width="1.5"></path><path d="M1557.63 -54.06L1576.73 197.25" stroke="hsl(0, 0%, 100%)" stroke-width="1.5"></path><path d="M1610.93 78.44L1610.93 78.44" stroke="hsl(0, 0%, 100%)" stroke-width="1.5"></path><path d="M1610.93 78.44L1576.73 197.25" stroke="hsl(0, 0%, 100%)" stroke-width="1.5"></path><path d="M1610.93 78.44L1403.55 56.83" stroke="hsl(0, 0%, 100%)" stroke-width="1.5"></path><path d="M1576.73 197.25L1576.73 197.25" stroke="hsl(0, 0%, 100%)" stroke-width="1.5"></path><path d="M1576.73 197.25L1558.12 395.24" stroke="hsl(0, 0%, 100%)" stroke-width="1.5"></path><path d="M1597.08 519.92L1597.08 519.92" stroke="hsl(0, 0%, 100%)" stroke-width="1.5"></path><path d="M1597.08 519.92L1609.79 691.79" stroke="hsl(0, 0%, 100%)" stroke-width="1.5"></path><path d="M1597.08 519.92L1401.18 662.17" stroke="hsl(0, 0%, 100%)" stroke-width="1.5"></path><path d="M1597.08 519.92L1389.92 361.61" stroke="hsl(0, 0%, 100%)" stroke-width="1.5"></path><path d="M1597.08 519.92L1439.77 262.49" stroke="hsl(0, 0%, 100%)" stroke-width="1.5"></path><path d="M1609.79 691.79L1609.79 691.79" stroke="hsl(0, 0%, 100%)" stroke-width="1.5"></path><path d="M1609.79 691.79L1401.18 662.17" stroke="hsl(0, 0%, 100%)" stroke-width="1.5"></path><path d="M1609.79 691.79L1422.99 497.09" stroke="hsl(0, 0%, 100%)" stroke-width="1.5"></path><path d="M1609.79 691.79L1558.12 395.24" stroke="hsl(0, 0%, 100%)" stroke-width="1.5"></path><path d="M1609.79 691.79L1237.85 695.82" stroke="hsl(0, 0%, 100%)" stroke-width="1.5"></path><path d="M1609.79 691.79L1389.92 361.61" stroke="hsl(0, 0%, 100%)" stroke-width="1.5"></path><circle r="25" cx="73.02" cy="509.06" fill="url(&quot;#SvgjsRadialGradient1031&quot;)"></circle><circle r="25" cx="656.26" cy="400.54" fill="url(&quot;#SvgjsRadialGradient1031&quot;)"></circle><circle r="25" cx="675.07" cy="553.64" fill="url(&quot;#SvgjsRadialGradient1031&quot;)"></circle><circle r="25" cx="953.88" cy="502.55" fill="url(&quot;#SvgjsRadialGradient1031&quot;)"></circle><circle r="25" cx="1133.22" cy="108.48" fill="url(&quot;#SvgjsRadialGradient1031&quot;)"></circle><circle r="25" cx="1103.58" cy="492.43" fill="url(&quot;#SvgjsRadialGradient1031&quot;)"></circle><circle r="25" cx="1403.55" cy="56.83" fill="url(&quot;#SvgjsRadialGradient1031&quot;)"></circle><circle r="25" cx="1422.99" cy="497.09" fill="url(&quot;#SvgjsRadialGradient1031&quot;)"></circle><circle r="25" cx="1558.12" cy="395.24" fill="url(&quot;#SvgjsRadialGradient1031&quot;)"></circle><circle r="5" cx="-87.62" cy="550.5" fill="#f5f5f5"></circle><circle r="5" cx="78.13" cy="706.94" fill="#f5f5f5"></circle><circle r="5" cx="224.32" cy="553.92" fill="#f5f5f5"></circle><circle r="5" cx="229.59" cy="692.54" fill="#f5f5f5"></circle><circle r="5" cx="399.47" cy="514.94" fill="#f5f5f5"></circle><circle r="5" cx="358.89" cy="698.38" fill="#f5f5f5"></circle><circle r="5" cx="502.89" cy="537.09" fill="#f5f5f5"></circle><circle r="5" cx="521.75" cy="678.5" fill="#f5f5f5"></circle><circle r="5" cx="696.98" cy="665.14" fill="#f5f5f5"></circle><circle r="5" cx="817.75" cy="531.9" fill="#f5f5f5"></circle><circle r="5" cx="859.23" cy="695.77" fill="#f5f5f5"></circle><circle r="5" cx="992.83" cy="368.98" fill="#f5f5f5"></circle><circle r="5" cx="1012.12" cy="638.1" fill="#f5f5f5"></circle><circle r="5" cx="1143.79" cy="221.74" fill="#f5f5f5"></circle><circle r="5" cx="1160.98" cy="378.59" fill="#f5f5f5"></circle><circle r="5" cx="1117.39" cy="644.55" fill="#f5f5f5"></circle><circle r="5" cx="1309.73" cy="-66.54" fill="#f5f5f5"></circle><circle r="5" cx="1297.17" cy="60.77" fill="#f5f5f5"></circle><circle r="5" cx="1238.82" cy="397.29" fill="#f5f5f5"></circle><circle r="5" cx="1237.85" cy="695.82" fill="#f5f5f5"></circle><circle r="5" cx="1415.99" cy="-77.49" fill="#f5f5f5"></circle><circle r="5" cx="1439.77" cy="262.49" fill="#f5f5f5"></circle><circle r="5" cx="1389.92" cy="361.61" fill="#f5f5f5"></circle><circle r="5" cx="1401.18" cy="662.17" fill="#f5f5f5"></circle><circle r="5" cx="1557.63" cy="-54.06" fill="#f5f5f5"></circle><circle r="5" cx="1610.93" cy="78.44" fill="#f5f5f5"></circle><circle r="5" cx="1576.73" cy="197.25" fill="#f5f5f5"></circle><circle r="5" cx="1597.08" cy="519.92" fill="#f5f5f5"></circle><circle r="5" cx="1609.79" cy="691.79" fill="#f5f5f5"></circle></g><defs><mask id="SvgjsMask1030"><rect width="1440" height="560" fill="#ffffff"></rect></mask><radialGradient id="SvgjsRadialGradient1031"><stop stop-color="#ffffff" offset="0.1"></stop><stop stop-color="rgba(235, 235, 235, 1)" offset="0.2"></stop><stop stop-color="rgba(235, 235, 235, 0)" offset="1"></stop></radialGradient></defs></svg>